<mxfile host="app.diagrams.net" agent="Mozilla/5.0 (Macintosh; Intel Mac OS X 10_15_7) AppleWebKit/537.36 (KHTML, like Gecko) Chrome/138.0.0.0 Safari/537.36" version="28.0.6">
  <diagram name="PÃ¡gina-1" id="KzTfm0D79-TpJKY52p0q">
    <mxGraphModel dx="786" dy="477" grid="0" gridSize="10" guides="1" tooltips="1" connect="1" arrows="1" fold="1" page="1" pageScale="1" pageWidth="1100" pageHeight="1850" math="0" shadow="0">
      <root>
        <mxCell id="0" />
        <mxCell id="1" parent="0" />
        <UserObject label="&lt;font style=&quot;font-size: 15px;&quot;&gt;Mongo Compass&lt;/font&gt;" placeholders="1" name="Variable" id="BqjSLN71TK_Zf-umYn8F-4">
          <mxCell style="text;html=1;strokeColor=none;fillColor=none;align=center;verticalAlign=middle;whiteSpace=wrap;overflow=hidden;" vertex="1" parent="1">
            <mxGeometry x="205" y="508" width="143" height="24" as="geometry" />
          </mxCell>
        </UserObject>
        <mxCell id="BqjSLN71TK_Zf-umYn8F-7" value="" style="shape=image;verticalLabelPosition=bottom;labelBackgroundColor=default;verticalAlign=top;aspect=fixed;imageAspect=0;image=data:image/png,iVBORw0KGgoAAAANSUhEUgAAAgAAAAIACAMAAADDpiTIAAAABGdBTUEAALGPC/xhBQAAAAFzUkdCAK7OHOkAAAL9UExURQAAAAAAAAAAAAAAAAAAAAAAAAAAAAAAAAAAAAAAAAAAAAAAAAAAAAAAAAAAAAAAAAAAAAAAAAAAAAAAAAAAAAAAAAAAAAAAAAAAAAAAAAAAAAAAAAAAAAAAAAAAAAAAAAAAAAAAAAAAAAAAAAAAAAAAAAAAAAAAAAAAAAAAAAAAAAAAAAAAAAAAAAAAAAAAAAAAAAAAAAAAAAAAAAAAAAAAAAAAAAAAAAAAAAAAAAAAAAAAAAAAAAAAAAAAAAAAAAAAAAAAAAAAAAAAAAAAAAAAAAAAAAAAAAAAAAAAAAAAAAAAAAAAAAAAAAAAAAAAAAAAAAAAAAAAAAAAAAAAAAAAAAAAAAAAAAAAAAAAAAAAAAAAAAAAAAAAAAAAAAAAAAAAAAAAAAAAAAAAAAAAAAAAAAAAAAAAAAAAAAAAAAAAAAAAAAAAAAAAAAAAAAAAAAAAAAAAAAAAAAAAAAAAAAAAAAAAAAAAAAAAAAAAAAAAAAAAAAAAAAAAAAAAAAAAAAAAAAAAAAAAAAAAAAAAAAAAAAAAAAAAAAAAAAAAAAAAAAAAAAAAAAAAAAAAAAAAAAAAAAAAAAAAAAAAAAAAAAAAAAAAAAAAAAAAAAAAAAAAAAAAAAAAAAAAAAAAAAAAAAAAAAAAAAAAAAAAAAAAAAAAAAAAAAAAAAAAAAAAAAAAAAAAAAAAAAAAAAAAAAAAAAAAAAAAAAAAAAAAAAAAAAAAAAAAAAAAAAAAAAAAAAAAAAAAAAAAAAAAAAAAAAAAAAAAAAAAAAAAAAAAAAAAAAAAAAAAAAAAAAAAAAAAAAAAAAAAAAAAAAAAAAAAAAAAAAAAAAAAAAAAAAAAAAAAAAAAAAAAAAAAAAAAAAAAAAAAAAAAAAAAAAAAAAAAAAAAAAAAAAAAAAAAAAAAAAAAAAAAAAAAAAAAAAAAAAAAAAAAAAAAAAAAAAAAAAAAAAAAAAAAAAAAAAAAAAAAAAAAAAAAAAAAAAAAAAAAAAAAAAAAAAAAAAAAAAAAAAAAAOafOxsAAAD+dFJOUwBupP5VWqqRTbEB/Rfn+wL8AwT49Q7u+uIHCKn59/YiCQXx7CHXBijdHAq9ym30ExAPoHjz8IFBZOXymic33LQpfjRUxxUe6wuMbxLDy0U/0tENMdOLX1aPuTMaDB2Y33A1ZS7WXLiAUS/Q7d6rXlJGnTbbER9A6XWXXah9t8jg78WSZmFZiIlySDmVoWcZgyROLa1Th0faGJ/GPdWmo3vCzyu6ooTNuzqG49QgdiM82UmssLLArkK8d0rBtUNqaTCOPrNLV8m/Y0S+JnPMO3/OtqWebJSnMsQsUI3YnEzkYljmOHxba5N5ipBPha+bKuqZ6IIUJRtxdBbhYJZ6yd5C0QAAHc9JREFUeNrtnXd8F0X+xke/IJBOElIoSSCQSCIpJBCKwSBFAhIQlR56ETya9CrSQaSciIhUFQWxoCieYgEB+9l7P/upZ7l+vzKv3/1O7wBJ8t2Zz+zuzOzz/JvXa3d2Pu/sd/fZZ+bDGARBEARBEARBEARBEHSq/lHyxZd/WDT8ouKYhDbR236z40+/G52FWQmIWrb7bkyIn6GEa1ZUAALrdc+C8yJ5tco7eKIh5shepfbPraH6P2nxsAmYKDtVWPQJd6JQ7iMRmC3rlFPUhjvWeQ9hwuxS/Sc+4kIaVIZJs0hPXsJF1fiGHMybJRqyI8QllPIhps4GZT1czCVVrzumz3h92ILLq/jupphBo5V+Aadp/4uYRHM1dH0TTlXka70wkYZqQApXocxR8IVM1OjnuCrt+jWm0zQV1Inh6pRc3gNTapJiR0VztUq5ArNqjkrP4+pVrzkm1gxF3RTJ3VBiEUwBAxQ/og13S2PuxfzqrooW3EWFWkdhinVW5STusmAKaKyM8WncfW0djZnWU++eyz1RzMB+mGz9lH0H90wpXTDfmqnf7xtzL/UKTAGdFDE5mnusxJ0wBbTR4Gu4D2pRgpnXQvkdI7kvCu2AKaCB8dfqSu6bkq6DKeCzJPLeStV1MGrgo1qeHeI+C6aAf0rdmUeq3ZWvtXtrSE7BXav/dxflKSJlCkrhi+p2IpV/4pRT3uP+ekMzwqEe3YBqeK70V0jl7/TNLx7f8n8k3AUSF6SiIp5q6D5S3juxcxUFK91NMQWwnNhL0fLeoUYtq36j7En4HQhthynglSZcTLr7963ewWt5DuG4i1vFojYeaMYSUt47qVX9mo6+mvJJ+akLUR63Fbt0NqX8cdPC3agz2iYQDr+kAUrkqj6l5b0XjXRwjuxcwhmil6NI7inqNpLxF/2MQ+f+c8rH5UHno1DuKGsVxazhyQOd354L3iCYAmkvwRRwQ1Npee9bxdZ3XtWb4jI9i3Kp1l33exziq08yBeavQ8lUipj3Tmsrs+HXlkYhiilQH2VTpi60vHe9dNlfnemEs94OU0CRsn9DW8+3Wv7UDccTPjnEXQtTQIEKy5Mp5e8whxbe3UChL3os6kcUMe8duXYIeQgn2lPePWAKkDRyK+nuv3uvkntQnTj5ISTsQf8BaRHz3pmjVH2dG0kyBVajklKK77mY9NlnrsLt/WKfIGw6UV38AKpRfWh578OK13BHvUowBTqMgCkgqMr5pM8+H7nw+F3xPiWBOhI1FVBqESnvnXCDK5v6ZS2gmALDZqCuTlWXZvwtdO3VK30hYViz56GyjnTPo7S893E3BzfgTsLQnoMpEF5DV5A2eije6fK3+ELKDrQJ+zJQ4ZqNv9+5kvdWqgmUVNq5j6DINc0tMe89y5NRxl6XRBjkJJgC1Rp/b7iZ91ZqClCyiR1egClQ9f9VJsn46+jpwpxZlHzaxDUo9xm6tzfp7t/V6/RF1k5CRimyI0yB07WFmPfu78NOLemU19XMySj6Kf9NczzLeyvVJsory4PoQvNvbablvQfd4p9pUU54bEVr2p/vpNfT8t6bfB39aMoOhVcfR/kz2tI2enjJ77xN7HWUXeoOBr01ba3htLy3Dhv25rcmPMAW3x0f4PKX5ZLKP+YxTa6jzzbCVVyyN6jlLzhKyns3m6PPZs1ZRYkEUyCYrWkj+hPz3nrtyDOT0qM68+PgbTh7FW2jh976manfUEyBwwEzBbp9p0neW6kpsJLwk5a8MkCmQHxPUmO/mGt1NdJHv00xNN4NSv1n0fLeD2rcsytiWabpL7Wuq/Ic0meflNp6X17+NJIpYH0XmoY7dcx7K9XNlBuc7a1piXnvY0akauPnECAPte5mb/mfJ+a9jclTVj5AesWx1BQYupKU9+7wlUl7r22k3Oq22mgKRIylrKjgofmGZWl7rKCYAu/1sK3+E94m3f0nzjLvkr+nRNwta02bPzeOUv4kM3dci+j/A+GiH7DHFKDmvYcZ+1xM2uEk8StLTIGbbyfd/bcavdveGoop0GKWBeXfsoOW955n+DtR/KpiiilgehearIeLKeVPPmrBTostJ1Eef8xuTUvNe2fD/+Rdjxh73ekHSeUfvonZoox9BA/M1Na0OcS8d2er9lfMfo4wF+1NNAVq0TZ6OGTbp3HalrcLTZuOdyzJe6tUwTBKF5rOJn0JKahD2uhh8QuWxiJKX6aYAiXGGH/LaHnv1vZ2YKW1pt1hxsSU0vLeT9m9ecYQUmvax/VvTbvlA1Le+4/trO++u/pXhPlZdET3Wxwt770kCBunkFrTxryn8/KBZ2l579zRLBjKfpqyp4C2b0iVk2h57xMsOKK0po0sz9LyxvZSGinv/W2wtkuZcS3hWWlRpX4XtJGW937gLyxoorSm/aRUtx+1W2l5780sgKK0pk3T6utAP2Le++4sFkwRWtPGfazNVUT0p7TV46EdQd47eWon6UfBJzS5hAnXkO7+E19kgZZ8a9pILbYa7UZs7PcF9s2Wbk0bU9f3sdO2yONxw/IZxNgAyd/QxCM+D/xJmvG3C93Vf5Zsa9rhvi6YGPImLe/9OQp/UiPlPqHm+vfpjJj3Tijvh6qf9msq15r2Yb/G+yEt7/0K2qedoSiZO2rjt3wZa/oxUvnPnYJyVyWZ1rQTfdhpeOh65L1d+l2VaE37guejXE5s7Nccha7h3ir8UaX4r96OcPRzpLv/mIdQ5DCmgOhGKh94OTpq3ntEU1Q4vCkgNscx3j1Qxy69iJT3vqkbyutEg8VMge1ejYua9x6J0jr9TxNqTRtzlzevqTfRPvu0i0BhBWZbpI3i1x4MKH4ErbHf14UoqtDD1hKBrwPN3N9TrmI/6e7/NFokCj5szRaa33kuj6dyEqn8lm15577uFX3YynV1OBnjSXnvJt9moKQiGvKq8DeByHUujuddYt47HSUVUWqRzFfWUa6NJ/sOUvkP3IeSCqnujXL/Zi4Np997pMZ+Hf4O40/s322Q5EznuTLRtF1teOjVliipiAovl19e4cZKocHIe3spWh9N9R+F84mN/ZbGoqYiKu1N+ndrpNr4e5yY9+6FkoqI6LNzvl/teKh570tRUhFlrWrGiWqs8imwZSNa3rs2Siqk1Tdyup5Xh2MRrbHfSuS9hZR+AVchZZsI1qXhuBB5byENXdFYSf25otvu8zQcp29ESYVe/ealcEVapQTHfch7eymi03KaFigYzwBi3nsmSirktHSMVFd//i15PEd2kQZwSQlKKqKmf2vDVeoocTwzlpDy3klnYaMHIVVcxtWqDmk4ohGkX+YRLN7f251Xv/s51wmAT2l570XIewuJ2EtHOQBCCeQzNRt5by+ftZUDQM17D0TeW0gTdnGuEwBTaRs93IG8t9ir3xsxXCcA7qI9jCDvLXi3fTyTc40AIOa909bnoKYi6nMJ5zoB0IWW966HvLeQKueHuE4AZNMa+7WoQEmF7ra0bgr8lTpqASgsp+W970be28u7bafj7CyVAEQ8Q2vstxZ5byH9mna3bTYniykFIPti0nh270VJRUTcVidy7ZD/P4o6AGKLSBmUzFHIe4uIuK0O7/3zkg9lAESRFvvFzUXeW0g30+L+J312VQC8SPrsd3g0SiqiIdtJr37JAxv851CKAJhM+Q4VPRYlFZHcSu+TGpd9ysHUALCTAGTCDT1QUxHVJb76nd4PRAkAlyPv7ZmyXyGVv3hnKlMOQB0CjsdRUiGj7SjJaAu9OuSXR1QAQFv5vPeCVNRUxGgjrfTmfHcVK+vpALSSxnE7jD8hraEl7GZfV1XAlgxAhawd1Rd5byFtoa30Tl4yo8rDUgHYIBlFuPJ15L1FlDWHttK72ogVEYCsl+WMv2nIewtpMy1hl7Kp2iMTASiXGk9X5L2FRFzpXePaShoAJTI/S9HPIO8tIuJK7zBrK0kApB6g+dCQg1e/sXeS/v0nzqr5+CQAxouP59ZbUFMREVd6J7UK96xNAWCm8BegX72Lkoooahrp1S/my/Af2SkATBPNe7dF3ltE8T1pK70fdPKRnQDA84IWUD009hMScaV3ygBHZyEA8KrQeLY9i5KK6B7a4qpEp3dbeQAqRb5LNZuDvLeIiCu9Q4cc323lAVghHECFnIq40lukjao0AKnOPwIcKEVJRXQpLV4v9plFGoApAm8je3D/d678N+Io5Y/rKPaZRRqAgyKjenkCCuvw1Y+40nvXhYInlAWggZg/nfAwvv46UR/aq99Hy4XPKAvAJuEvgGUobzhVTiLF/aXy1bIAvCY8vLyz8BGwRhH31eBcamMFWQBk3lNy70GVq1eXqzlRzEMAKqVG2GwU6lyNynI5NwmAE7LLQBAErkrEld4+ALBSdpCZWAd4hqgrvf0A4AH5YV7/Z5T8NN18O+fGATCdskDhChT9pIbsULbJl4cAxJJ+skJrC1D4n5T6VR7nBgKwhTjU9mj+/S8RV3r7B8AR6lhDw4ai/MSV3n4C8Bh9tJ1uDnj5Cwcmc2MB+FDBcCMHZgS4/NSV3j4D0EXJgN+/KrD1Lz2Pc5MBqK1mxDF7sgJZ/i23ubK/s3kABDMpQl3pbRUAvPGC+IDVn7jS2zYAgpYUUdTT2yYAeNoLgUmKKOvpbRUAnD8YjKQIdaW3vQAEIykyuCtpjpK+sBgAzsd1t7z83Wg9veOGdWNWA8CvnGdz+akrvQ+/9c+D2A0A53+wd+cw6krv2v86iu0A8NlTLH31u540LU32/Rz3tx4AzrdbmBSh9vQ+2UfRIADGye5ucKd1SZEBH5HKP+axk4cyCICz2QnJNY6hjv1sKv8E2krvxSNOXVdtFABsnaznebU9m0jnz6Wt9P7FhrpmAcDYsg6SSZGvM+x49Xv8StpHkl+u9DYNANZddrnTjTYkRYg9vaPHnvGFxDgAWESrRMmkyA2mJ0XcWOltHgCMbXhbcgb6Gp0UyVhAi/sfq7KTlokAsPoPJ0gmRTqbmxQh9vQ+UM27sJEAMPb9bsl56F1mZvnLqD29q9tSy1AAWNPxkgH4tDkG9pOm9vRuXf0XEVMBYGzwtqAkRWKXknoo80Vraji4uQCwhislHZHix42qP3Gld5heKgYD8M+pkV1QblBShLjSO6E8TC8VowFgPZZIJmLaTDaj/NSe3uGbKJsNAGMVsttgHVxnQP3V9vS2EgDWYJrkLfKHTbqXP3shqfwdipw0UTYeAMY2tpecofn5Ope/sJzW2O02Z3unWQAA69VIcpLaP6Lvq98yYk/vvQ5PZAMAjA2Q3BIt9JqmSRHiSu/MUY7dLjsAYFHHZJMiD2lY/i2taT29vy50fi5LAGCs/2JJm3RJhmblp670HiTURtMaAFj3O2STInu1qj9xpfdwwZcbewBgEU9Ifi+PuSFVm/K72dPbdgAY2yAbl902WI/yk3t6i2+bbRUALHaV5HoJLZIiEZPbk/79J94rcVK7AGDs+96Ss/db3zuQE3t6Z34h1UHJNgBY/ALJpEiTu31NihBXesdc20vuvNYBwNilEyUn8W3/kiLUld5Pj5Y9s4UAsNQVkkmRvFY+bSxUsZ9U/pQu8qe2EQDG1hyQNVH8SIoQV3o77ukdIABYTh3ZpMjHnr/6raf19J7UnHR6SwFgrEQ2KVLP26QIsad3X+qqV2sBYA06SiZFMmt5V37iSu+kVuTmufYCwNiHuidFqCu9h3Wjj8FmAFivNyWnNtqLpEj867SV3gcuVTEKqwFgrJZsUqR1odv1J6705vwcBgAcGGyHZJMij7lafuJKbwDgXJMlkyKha3NcK39GZwWN3QCAQ627VXKGp7/oUv27KGnsBgAcf2a9TnJ5Tdzv3UiKvJPLOQDwEgDGmu/SJikyQ0lPbwAgqNgRaXKznNxWaVKEutIbAEirTDZpf/todfVX1tMbAEj4Ljsl83bKkiIKe3oDABlJJ0WueV7BTKcW5XEOAPwEgGXtk3wAU5AUUdvTGwBI6tMxkrOdS0uKZN/BOQDQAADWcKBsUqSd/EmJK70BgEIAGOsju7HQA5JJEepKbwCgFgDW70fZpMhymdO50tMbAJC0WbbXYiPhpAhxpTcAcAUANuM2yUmfXVfoPK719AYAVF3xgwdJkeMtOAcAegLAomTD+Fc/6/AM6Y+S6ps4CAC4CQBjnydJ3gTmDnXyqLmSuNJ7Zi0A4C4AbJ3sv+j0sOuwySu9ZzEGANwGgLGlki2o4sprTooQV3r/FPcHAO4DwLoflk2KXFj9Qak9vef+tNIbAHgAAIvtKduCan01PTioK70f/Hf+AAB4AQBjGxbJJkWqbEE1lbjSe8B/jgQAvAGA1S+SbEGVUHTGyjziSu+0U1d6AwCPAGDsiGwLqmtO9wT++mUCpfyhQzNPPRoA8AwAlvWtbFT3t6v+va9MQZdJpPKfsdIbAHgHAGOl26QLd9HTb3639oIDxI8+Sa//8vcEAHgJAGtY7tpnOyevflWs9AYAngLA2JPTfav/rqpcBQDgMQCsx9yQL+X/aGyVwwEAXgPwz5f4q70vf8K+HgwAaAIAm7HW6/rXS69uLADABwAY+6a9l+Ufs7n6kQAAXwBg3SZ5Vv7FLzRlAEA3ABgbkOnNq9+0qBqHAQD8AoCtu8CD+ncdGWYUAMA3ABhb1sHl8kf3D7vaEAD4CADr/htXX/1WOuhXCAD8BIBFtEp0rf7HzncyAgDgKwCMbXjbnfIfcLgNKQDwGQBW/+EE9eVvdndTBgDMAICx73crLn/k2iGOTw4A/AeANR2frLL+i9YInBsAaAAAY29dpu7V7xmhjWYAgBYAsIYr45SUP3lgA7ETAwA9AGBsr4qkyLhs0dMCAF0AYD2WUONinTaKnxUAaAMAYxWkpEiHr2Q2nQYAGgHAGkyTjouFtreUOiUA0AkAxjZKJkV275U8IQDQCwDWq5FE+TNHSW80DAA0A4CxAX8UffU7Sug9BQC0A4D1Wy+y4XPo0C2UkwEA/QBgLH+F06hI6OAa2qkAgI4AMFb4Nyf7fhfPvYV6IgCgJwCMRdx8LMxQU55R0HcSAOgKAGN1wwy1noqTAAAAAAAAgJEAzAlz0PcAgN0A7Atz0D0AwG4AWoc56GcAwG4A+oY5aE8AYDUABeG23BoAAKwGYFm4g94LAKwG4LlwB20OAGwGYE247ExiLACwGICIsDeA2xkAsBiAJ8J+KVsLACwGYHD4yMQTAMBeAJo7iE7+GgBYC8ClDuqfFAsAbAXgv53kpbYzAGAnAOkLHYXlfgcArASgx/omjurfuBAA2AhArRSHadlDDADYB8A7uY7T8nUBgHUAzFjivOVOdFMAYBkAsaOiBZbLfMYAgF0AlJ4nUH6emA8ArAJgXWuxzTPqMABgEQDxIwT75OZFAQCLAJjaggtqPQMA1gCQXk+0/PyTQgBgCwAZ45sI179aFxgAGAfAieHi5eeDGACwA4CyXIny88XdAYAVABTUkeu1vZwBAAsAiG0XLVV+Po0BAAsAEDP+TtFTDQGA+QCs+0B219z2YTslAADtARA2/k6qzREGAEwHoKKFbPl52pMMABgOwF1/kC4/T9zMAIDZAGSMT5Ovf7NZDACYDUCt/5IvP/9kMAMARgOQTeqj+nIlAwAmA1BwlNQ6bXsOAwAGAxDRP5pS/rx2jocCAHQE4KrelPLzwxsYADAaAFK7rKR2Ip0SAYCOABAU90E3oaEAALsAWDRScCgAwCYAoj+OYAAgsAAI98kFAFYBMChbZigAwBIAhm+SGwoAsAKAxM4NGQAILAChSc2lhwIAzAdgzEOEoQAA0wFIOqs+AwCBBSBuWhRtKADAaACEjb8ztDzcd2UAoC8A0ZMjyEOZEuYcjwIAXQGQMv7O0CNhztIVAGgKwLhsJUMpCRctjQAAOgJw7hRFs3pLuDOdDwD0AyBvQUNVs9or3LlWAQDlAMQSjb9GzRVOa7gtR54CAKoB2Hseqf59H1I6rfvDne9eAKAUgKibaIk/mvF3ps4Jd8ZbAYBCALL+3oZS/riOUaqndXzYky4HAMoAWN2CdPe/ZqT6aT0e9qwXdQcAagCQ2OPvNONvnhvv5L3C/yLtLwAACgDIaNuEUn41xl8V2ubgk0M3AEAG4EQK6d9/oWuGzEAHZ79xMACgAVD2NC3x94178/qYkwE0fikVAMgDINLcw13jrwo1dfZe8v5gACAJgPQefz8bf/Nnujux05yNI6ZtPACQAaCUZvyNKXF7Yvs4jp9kAwBhAHQz/qpQxLmOf4seBwCCv6/aGX9VaZVACqElABDQVJrx13WkNzNb2Mz5mK5cDgCc6q77acZff8/COO+JjOvNAgDgRDl/SqOUv/HlDbyb2n8Uiwyt/bMAwMGBhpP+/Qd5+8C9R+zF9NoMABDG+MsllV92qa/8U8AfBd9NRwKAGlRAM/4SP/Pedp0sOEY/XCFTAIhdRjP+Gs304/56WHScvZ8HAFVqDc34u6SE+aK/FIuONK9VBAAw0firRkslnlRbAoDTRWju8S/jb1oU80+HxAecuRwAqDT+3vLTaWcNZEY/vxcAMM/4q0bZzSSG3b4CABhn/FWnEpnQoneukNYAdDmX9O8/KJvpoC5xMoN/f2TgATDN+KtWy6QISH4pPtAAyHb19dH4q1a15S6ld1lwATDT+KtW7+bJ5VY9cIX0BKCU1txjTB+mmS5sL/kY0z2IAER9YKrxV70qu8pdjOtZIf0AiB/RjFL+uB//zHRU05WSVLvsCmkHQAXR+LuQ6arNV8td0p0VAQKA0tWXu7XUV5V6fCl3E3DVFdIKgJy25ht/NWrWr+Su7MarAgEA0fgbl820V4PWctfmXlZIHwDKSF191e3x57KuuEju+txyhXQBgGr8dW7IDFHUBZKX6I4rpAcAlhl/YTSqWO4yBw2xFYDbzUz8Sav5xZKuUG1LASApqVV9ZprqFyXo4gqZDoBHS32V69LL5K63/WoAYIjxF0YNL9fDFTIaAP8Tf+a7QgYDkHy0ATNaWrhC5gJggvFngCtkKgCmGH8uuUJpPSMCDYBBxl84tZN1hboHFwDDjD+XXKGk2kEFoG8Js0r+ukLGAWCi8aezK2QYAKYaf665QjnBAsBc4y+c+vjlCpkEgNnGn6aukDkANC5vwKyWP66QMQDYYPzp6AoZAoAlxp9brtCt3e0GwCLjzy1XaKzOAMSugPHnviuUry0AnxK7+pawQMljV8h1AKJuC8H409gVchmArFW0pb52Gn9uuULTr9INgKnWLvXV1BVaH68TAOnXw/jz2hX6bZk2AOTQuvpab/xp4gq5BkAtWlffceezoMsbV8glAN6h7fHXaQqDvHGFXAEgOEt9NXWFGuX7CUDsqCAt9dXUFbrPPwBKYfzp4ArN7eEPAFGtaXv8Bc/489kVUgsAjD+dXKE98V4DAOPPPFdIIQBU429eBErtvSukDIAMmvGXEHDjL6wr1EFuXnO7ewQAsasvjD+/XCE1AMD4M9YVUgEAjD+DXSE6ALHtiMZfS5TWR1eIDACMP7NdISIA1K6+MP78doVIAFC7+sL489IVukU5ADD+zHKFRkQoBQDGnxWukCwAMP4scYUkAYDxZ4srJAVAGYw/Y12h6PvIAMD4s8kVEgYAxp9drpAoADD+rHCFmkoCAOPPOldIBAAYfxa6QgIAEI2/rTD+dHSFHAOQfj+MP8tcoXkCAGSMh/FnpyvkDAAYf9a6Qk4AoBp/G1EhfV2h5WEBIBt/qaiPByqRdIXywvz92Mc/wPgzQoVruRsiGT+875MojP6ukGuC8WeIK+SO4oZ1Q0lMcYVcEIw/o1wh1YLxZ5wrpFIJ5f1QCeNcIXWC8WemK6RIMP78l2xWSIFg/Gkh2awQVTD+gu0K9Z2FiQ+wKwTjL9CuEIy/YLtCMP4C7QpFj4XxF2BXKOH3MP60Var7rtBCGH9BdoVg/AXaFYLxF2hXCMZfsF2hiTD+guwKwfgLtCsE4y/YrhCMv0C7QjD+Au0KwfgLtisE4y/QrhCMv0C7QokLYPwF2BWC8RdsVwjGn0Wu0Fbh8me+DuPPIsUuE9v1J/l/8jFplnkCqzKd+75n/wUTZp8yrrvRUfnThm3AZNmp+nUnNQ672KNnL0yUxfrz0oOJ1b/39V0/GlNkvXJW73m6+Mzf/cuGzcNrf2AU0fz43y4/+46tL++/5KkHr39j5/IJaOsBQRAEQRAEQWH1fyxodzwuFhjIAAAAAElFTkSuQmCC;" vertex="1" parent="1">
          <mxGeometry x="242.5" y="535" width="68" height="68" as="geometry" />
        </mxCell>
        <mxCell id="BqjSLN71TK_Zf-umYn8F-24" value="&lt;ul&gt;&lt;li&gt;Gestor de base de datos no- sql&amp;nbsp;&lt;/li&gt;&lt;/ul&gt;" style="text;strokeColor=none;fillColor=none;html=1;whiteSpace=wrap;verticalAlign=middle;overflow=hidden;align=left;" vertex="1" parent="1">
          <mxGeometry x="290" y="543" width="240" height="34" as="geometry" />
        </mxCell>
        <mxCell id="BqjSLN71TK_Zf-umYn8F-30" value="" style="group" vertex="1" connectable="0" parent="1">
          <mxGeometry x="17" y="506" width="305" height="118" as="geometry" />
        </mxCell>
        <UserObject label="Mongodb" placeholders="1" name="Variable" id="BqjSLN71TK_Zf-umYn8F-2">
          <mxCell style="text;html=1;strokeColor=none;fillColor=none;align=center;verticalAlign=middle;whiteSpace=wrap;overflow=hidden;fontSize=17;" vertex="1" parent="BqjSLN71TK_Zf-umYn8F-30">
            <mxGeometry width="80" height="24" as="geometry" />
          </mxCell>
        </UserObject>
        <mxCell id="BqjSLN71TK_Zf-umYn8F-8" value="" style="shape=image;verticalLabelPosition=bottom;labelBackgroundColor=default;verticalAlign=top;aspect=fixed;imageAspect=0;image=data:image/png,iVBORw0KGgoAAAANSUhEUgAAAgAAAAIACAMAAADDpiTIAAAABGdBTUEAALGPC/xhBQAAAAFzUkdCAK7OHOkAAAL9UExURQAAAAAAAAAAAAAAAAAAAAAAAAAAAAAAAAAAAAAAAAAAAAAAAAAAAAAAAAAAAAAAAAAAAAAAAAAAAAAAAAAAAAAAAAAAAAAAAAAAAAAAAAAAAAAAAAAAAAAAAAAAAAAAAAAAAAAAAAAAAAAAAAAAAAAAAAAAAAAAAAAAAAAAAAAAAAAAAAAAAAAAAAAAAAAAAAAAAAAAAAAAAAAAAAAAAAAAAAAAAAAAAAAAAAAAAAAAAAAAAAAAAAAAAAAAAAAAAAAAAAAAAAAAAAAAAAAAAAAAAAAAAAAAAAAAAAAAAAAAAAAAAAAAAAAAAAAAAAAAAAAAAAAAAAAAAAAAAAAAAAAAAAAAAAAAAAAAAAAAAAAAAAAAAAAAAAAAAAAAAAAAAAAAAAAAAAAAAAAAAAAAAAAAAAAAAAAAAAAAAAAAAAAAAAAAAAAAAAAAAAAAAAAAAAAAAAAAAAAAAAAAAAAAAAAAAAAAAAAAAAAAAAAAAAAAAAAAAAAAAAAAAAAAAAAAAAAAAAAAAAAAAAAAAAAAAAAAAAAAAAAAAAAAAAAAAAAAAAAAAAAAAAAAAAAAAAAAAAAAAAAAAAAAAAAAAAAAAAAAAAAAAAAAAAAAAAAAAAAAAAAAAAAAAAAAAAAAAAAAAAAAAAAAAAAAAAAAAAAAAAAAAAAAAAAAAAAAAAAAAAAAAAAAAAAAAAAAAAAAAAAAAAAAAAAAAAAAAAAAAAAAAAAAAAAAAAAAAAAAAAAAAAAAAAAAAAAAAAAAAAAAAAAAAAAAAAAAAAAAAAAAAAAAAAAAAAAAAAAAAAAAAAAAAAAAAAAAAAAAAAAAAAAAAAAAAAAAAAAAAAAAAAAAAAAAAAAAAAAAAAAAAAAAAAAAAAAAAAAAAAAAAAAAAAAAAAAAAAAAAAAAAAAAAAAAAAAAAAAAAAAAAAAAAAAAAAAAAAAAAAAAAAAAAAAAAAAAAAAAAAAAAAAAAAAAAAAAAAAAAAAAAAAAAAAAAAAAAAAAAAAAAAAAAAAAAAAAAAAAAOafOxsAAAD+dFJOUwBupP5VWqqRTbEB/Rfn+wL8AwT49Q7u+uIHCKn59/YiCQXx7CHXBijdHAq9ym30ExAPoHjz8IFBZOXymic33LQpfjRUxxUe6wuMbxLDy0U/0tENMdOLX1aPuTMaDB2Y33A1ZS7WXLiAUS/Q7d6rXlJGnTbbER9A6XWXXah9t8jg78WSZmFZiIlySDmVoWcZgyROLa1Th0faGJ/GPdWmo3vCzyu6ooTNuzqG49QgdiM82UmssLLArkK8d0rBtUNqaTCOPrNLV8m/Y0S+JnPMO3/OtqWebJSnMsQsUI3YnEzkYljmOHxba5N5ipBPha+bKuqZ6IIUJRtxdBbhYJZ6yd5C0QAAHc9JREFUeNrtnXd8F0X+xke/IJBOElIoSSCQSCIpJBCKwSBFAhIQlR56ETya9CrSQaSciIhUFQWxoCieYgEB+9l7P/upZ7l+vzKv3/1O7wBJ8t2Zz+zuzOzz/JvXa3d2Pu/sd/fZZ+bDGARBEARBEARBEARBEHSq/lHyxZd/WDT8ouKYhDbR236z40+/G52FWQmIWrb7bkyIn6GEa1ZUAALrdc+C8yJ5tco7eKIh5shepfbPraH6P2nxsAmYKDtVWPQJd6JQ7iMRmC3rlFPUhjvWeQ9hwuxS/Sc+4kIaVIZJs0hPXsJF1fiGHMybJRqyI8QllPIhps4GZT1czCVVrzumz3h92ILLq/jupphBo5V+Aadp/4uYRHM1dH0TTlXka70wkYZqQApXocxR8IVM1OjnuCrt+jWm0zQV1Inh6pRc3gNTapJiR0VztUq5ArNqjkrP4+pVrzkm1gxF3RTJ3VBiEUwBAxQ/og13S2PuxfzqrooW3EWFWkdhinVW5STusmAKaKyM8WncfW0djZnWU++eyz1RzMB+mGz9lH0H90wpXTDfmqnf7xtzL/UKTAGdFDE5mnusxJ0wBbTR4Gu4D2pRgpnXQvkdI7kvCu2AKaCB8dfqSu6bkq6DKeCzJPLeStV1MGrgo1qeHeI+C6aAf0rdmUeq3ZWvtXtrSE7BXav/dxflKSJlCkrhi+p2IpV/4pRT3uP+ekMzwqEe3YBqeK70V0jl7/TNLx7f8n8k3AUSF6SiIp5q6D5S3juxcxUFK91NMQWwnNhL0fLeoUYtq36j7En4HQhthynglSZcTLr7963ewWt5DuG4i1vFojYeaMYSUt47qVX9mo6+mvJJ+akLUR63Fbt0NqX8cdPC3agz2iYQDr+kAUrkqj6l5b0XjXRwjuxcwhmil6NI7inqNpLxF/2MQ+f+c8rH5UHno1DuKGsVxazhyQOd354L3iCYAmkvwRRwQ1Npee9bxdZ3XtWb4jI9i3Kp1l33exziq08yBeavQ8lUipj3Tmsrs+HXlkYhiilQH2VTpi60vHe9dNlfnemEs94OU0CRsn9DW8+3Wv7UDccTPjnEXQtTQIEKy5Mp5e8whxbe3UChL3os6kcUMe8duXYIeQgn2lPePWAKkDRyK+nuv3uvkntQnTj5ISTsQf8BaRHz3pmjVH2dG0kyBVajklKK77mY9NlnrsLt/WKfIGw6UV38AKpRfWh578OK13BHvUowBTqMgCkgqMr5pM8+H7nw+F3xPiWBOhI1FVBqESnvnXCDK5v6ZS2gmALDZqCuTlWXZvwtdO3VK30hYViz56GyjnTPo7S893E3BzfgTsLQnoMpEF5DV5A2eije6fK3+ELKDrQJ+zJQ4ZqNv9+5kvdWqgmUVNq5j6DINc0tMe89y5NRxl6XRBjkJJgC1Rp/b7iZ91ZqClCyiR1egClQ9f9VJsn46+jpwpxZlHzaxDUo9xm6tzfp7t/V6/RF1k5CRimyI0yB07WFmPfu78NOLemU19XMySj6Kf9NczzLeyvVJsory4PoQvNvbablvQfd4p9pUU54bEVr2p/vpNfT8t6bfB39aMoOhVcfR/kz2tI2enjJ77xN7HWUXeoOBr01ba3htLy3Dhv25rcmPMAW3x0f4PKX5ZLKP+YxTa6jzzbCVVyyN6jlLzhKyns3m6PPZs1ZRYkEUyCYrWkj+hPz3nrtyDOT0qM68+PgbTh7FW2jh976manfUEyBwwEzBbp9p0neW6kpsJLwk5a8MkCmQHxPUmO/mGt1NdJHv00xNN4NSv1n0fLeD2rcsytiWabpL7Wuq/Ic0meflNp6X17+NJIpYH0XmoY7dcx7K9XNlBuc7a1piXnvY0akauPnECAPte5mb/mfJ+a9jclTVj5AesWx1BQYupKU9+7wlUl7r22k3Oq22mgKRIylrKjgofmGZWl7rKCYAu/1sK3+E94m3f0nzjLvkr+nRNwta02bPzeOUv4kM3dci+j/A+GiH7DHFKDmvYcZ+1xM2uEk8StLTIGbbyfd/bcavdveGoop0GKWBeXfsoOW955n+DtR/KpiiilgehearIeLKeVPPmrBTostJ1Eef8xuTUvNe2fD/+Rdjxh73ekHSeUfvonZoox9BA/M1Na0OcS8d2er9lfMfo4wF+1NNAVq0TZ6OGTbp3HalrcLTZuOdyzJe6tUwTBKF5rOJn0JKahD2uhh8QuWxiJKX6aYAiXGGH/LaHnv1vZ2YKW1pt1hxsSU0vLeT9m9ecYQUmvax/VvTbvlA1Le+4/trO++u/pXhPlZdET3Wxwt770kCBunkFrTxryn8/KBZ2l579zRLBjKfpqyp4C2b0iVk2h57xMsOKK0po0sz9LyxvZSGinv/W2wtkuZcS3hWWlRpX4XtJGW937gLyxoorSm/aRUtx+1W2l5780sgKK0pk3T6utAP2Le++4sFkwRWtPGfazNVUT0p7TV46EdQd47eWon6UfBJzS5hAnXkO7+E19kgZZ8a9pILbYa7UZs7PcF9s2Wbk0bU9f3sdO2yONxw/IZxNgAyd/QxCM+D/xJmvG3C93Vf5Zsa9rhvi6YGPImLe/9OQp/UiPlPqHm+vfpjJj3Tijvh6qf9msq15r2Yb/G+yEt7/0K2qedoSiZO2rjt3wZa/oxUvnPnYJyVyWZ1rQTfdhpeOh65L1d+l2VaE37guejXE5s7Nccha7h3ir8UaX4r96OcPRzpLv/mIdQ5DCmgOhGKh94OTpq3ntEU1Q4vCkgNscx3j1Qxy69iJT3vqkbyutEg8VMge1ejYua9x6J0jr9TxNqTRtzlzevqTfRPvu0i0BhBWZbpI3i1x4MKH4ErbHf14UoqtDD1hKBrwPN3N9TrmI/6e7/NFokCj5szRaa33kuj6dyEqn8lm15577uFX3YynV1OBnjSXnvJt9moKQiGvKq8DeByHUujuddYt47HSUVUWqRzFfWUa6NJ/sOUvkP3IeSCqnujXL/Zi4Np997pMZ+Hf4O40/s322Q5EznuTLRtF1teOjVliipiAovl19e4cZKocHIe3spWh9N9R+F84mN/ZbGoqYiKu1N+ndrpNr4e5yY9+6FkoqI6LNzvl/teKh570tRUhFlrWrGiWqs8imwZSNa3rs2Siqk1Tdyup5Xh2MRrbHfSuS9hZR+AVchZZsI1qXhuBB5byENXdFYSf25otvu8zQcp29ESYVe/ealcEVapQTHfch7eymi03KaFigYzwBi3nsmSirktHSMVFd//i15PEd2kQZwSQlKKqKmf2vDVeoocTwzlpDy3klnYaMHIVVcxtWqDmk4ohGkX+YRLN7f251Xv/s51wmAT2l570XIewuJ2EtHOQBCCeQzNRt5by+ftZUDQM17D0TeW0gTdnGuEwBTaRs93IG8t9ir3xsxXCcA7qI9jCDvLXi3fTyTc40AIOa909bnoKYi6nMJ5zoB0IWW966HvLeQKueHuE4AZNMa+7WoQEmF7ra0bgr8lTpqASgsp+W970be28u7bafj7CyVAEQ8Q2vstxZ5byH9mna3bTYniykFIPti0nh270VJRUTcVidy7ZD/P4o6AGKLSBmUzFHIe4uIuK0O7/3zkg9lAESRFvvFzUXeW0g30+L+J312VQC8SPrsd3g0SiqiIdtJr37JAxv851CKAJhM+Q4VPRYlFZHcSu+TGpd9ysHUALCTAGTCDT1QUxHVJb76nd4PRAkAlyPv7ZmyXyGVv3hnKlMOQB0CjsdRUiGj7SjJaAu9OuSXR1QAQFv5vPeCVNRUxGgjrfTmfHcVK+vpALSSxnE7jD8hraEl7GZfV1XAlgxAhawd1Rd5byFtoa30Tl4yo8rDUgHYIBlFuPJ15L1FlDWHttK72ogVEYCsl+WMv2nIewtpMy1hl7Kp2iMTASiXGk9X5L2FRFzpXePaShoAJTI/S9HPIO8tIuJK7zBrK0kApB6g+dCQg1e/sXeS/v0nzqr5+CQAxouP59ZbUFMREVd6J7UK96xNAWCm8BegX72Lkoooahrp1S/my/Af2SkATBPNe7dF3ltE8T1pK70fdPKRnQDA84IWUD009hMScaV3ygBHZyEA8KrQeLY9i5KK6B7a4qpEp3dbeQAqRb5LNZuDvLeIiCu9Q4cc323lAVghHECFnIq40lukjao0AKnOPwIcKEVJRXQpLV4v9plFGoApAm8je3D/d678N+Io5Y/rKPaZRRqAgyKjenkCCuvw1Y+40nvXhYInlAWggZg/nfAwvv46UR/aq99Hy4XPKAvAJuEvgGUobzhVTiLF/aXy1bIAvCY8vLyz8BGwRhH31eBcamMFWQBk3lNy70GVq1eXqzlRzEMAKqVG2GwU6lyNynI5NwmAE7LLQBAErkrEld4+ALBSdpCZWAd4hqgrvf0A4AH5YV7/Z5T8NN18O+fGATCdskDhChT9pIbsULbJl4cAxJJ+skJrC1D4n5T6VR7nBgKwhTjU9mj+/S8RV3r7B8AR6lhDw4ai/MSV3n4C8Bh9tJ1uDnj5Cwcmc2MB+FDBcCMHZgS4/NSV3j4D0EXJgN+/KrD1Lz2Pc5MBqK1mxDF7sgJZ/i23ubK/s3kABDMpQl3pbRUAvPGC+IDVn7jS2zYAgpYUUdTT2yYAeNoLgUmKKOvpbRUAnD8YjKQIdaW3vQAEIykyuCtpjpK+sBgAzsd1t7z83Wg9veOGdWNWA8CvnGdz+akrvQ+/9c+D2A0A53+wd+cw6krv2v86iu0A8NlTLH31u540LU32/Rz3tx4AzrdbmBSh9vQ+2UfRIADGye5ucKd1SZEBH5HKP+axk4cyCICz2QnJNY6hjv1sKv8E2krvxSNOXVdtFABsnaznebU9m0jnz6Wt9P7FhrpmAcDYsg6SSZGvM+x49Xv8StpHkl+u9DYNANZddrnTjTYkRYg9vaPHnvGFxDgAWESrRMmkyA2mJ0XcWOltHgCMbXhbcgb6Gp0UyVhAi/sfq7KTlokAsPoPJ0gmRTqbmxQh9vQ+UM27sJEAMPb9bsl56F1mZvnLqD29q9tSy1AAWNPxkgH4tDkG9pOm9vRuXf0XEVMBYGzwtqAkRWKXknoo80Vraji4uQCwhislHZHix42qP3Gld5heKgYD8M+pkV1QblBShLjSO6E8TC8VowFgPZZIJmLaTDaj/NSe3uGbKJsNAGMVsttgHVxnQP3V9vS2EgDWYJrkLfKHTbqXP3shqfwdipw0UTYeAMY2tpecofn5Ope/sJzW2O02Z3unWQAA69VIcpLaP6Lvq98yYk/vvQ5PZAMAjA2Q3BIt9JqmSRHiSu/MUY7dLjsAYFHHZJMiD2lY/i2taT29vy50fi5LAGCs/2JJm3RJhmblp670HiTURtMaAFj3O2STInu1qj9xpfdwwZcbewBgEU9Ifi+PuSFVm/K72dPbdgAY2yAbl902WI/yk3t6i2+bbRUALHaV5HoJLZIiEZPbk/79J94rcVK7AGDs+96Ss/db3zuQE3t6Z34h1UHJNgBY/ALJpEiTu31NihBXesdc20vuvNYBwNilEyUn8W3/kiLUld5Pj5Y9s4UAsNQVkkmRvFY+bSxUsZ9U/pQu8qe2EQDG1hyQNVH8SIoQV3o77ukdIABYTh3ZpMjHnr/6raf19J7UnHR6SwFgrEQ2KVLP26QIsad3X+qqV2sBYA06SiZFMmt5V37iSu+kVuTmufYCwNiHuidFqCu9h3Wjj8FmAFivNyWnNtqLpEj867SV3gcuVTEKqwFgrJZsUqR1odv1J6705vwcBgAcGGyHZJMij7lafuJKbwDgXJMlkyKha3NcK39GZwWN3QCAQ627VXKGp7/oUv27KGnsBgAcf2a9TnJ5Tdzv3UiKvJPLOQDwEgDGmu/SJikyQ0lPbwAgqNgRaXKznNxWaVKEutIbAEirTDZpf/todfVX1tMbAEj4Ljsl83bKkiIKe3oDABlJJ0WueV7BTKcW5XEOAPwEgGXtk3wAU5AUUdvTGwBI6tMxkrOdS0uKZN/BOQDQAADWcKBsUqSd/EmJK70BgEIAGOsju7HQA5JJEepKbwCgFgDW70fZpMhymdO50tMbAJC0WbbXYiPhpAhxpTcAcAUANuM2yUmfXVfoPK719AYAVF3xgwdJkeMtOAcAegLAomTD+Fc/6/AM6Y+S6ps4CAC4CQBjnydJ3gTmDnXyqLmSuNJ7Zi0A4C4AbJ3sv+j0sOuwySu9ZzEGANwGgLGlki2o4sprTooQV3r/FPcHAO4DwLoflk2KXFj9Qak9vef+tNIbAHgAAIvtKduCan01PTioK70f/Hf+AAB4AQBjGxbJJkWqbEE1lbjSe8B/jgQAvAGA1S+SbEGVUHTGyjziSu+0U1d6AwCPAGDsiGwLqmtO9wT++mUCpfyhQzNPPRoA8AwAlvWtbFT3t6v+va9MQZdJpPKfsdIbAHgHAGOl26QLd9HTb3639oIDxI8+Sa//8vcEAHgJAGtY7tpnOyevflWs9AYAngLA2JPTfav/rqpcBQDgMQCsx9yQL+X/aGyVwwEAXgPwz5f4q70vf8K+HgwAaAIAm7HW6/rXS69uLADABwAY+6a9l+Ufs7n6kQAAXwBg3SZ5Vv7FLzRlAEA3ABgbkOnNq9+0qBqHAQD8AoCtu8CD+ncdGWYUAMA3ABhb1sHl8kf3D7vaEAD4CADr/htXX/1WOuhXCAD8BIBFtEp0rf7HzncyAgDgKwCMbXjbnfIfcLgNKQDwGQBW/+EE9eVvdndTBgDMAICx73crLn/k2iGOTw4A/AeANR2frLL+i9YInBsAaAAAY29dpu7V7xmhjWYAgBYAsIYr45SUP3lgA7ETAwA9AGBsr4qkyLhs0dMCAF0AYD2WUONinTaKnxUAaAMAYxWkpEiHr2Q2nQYAGgHAGkyTjouFtreUOiUA0AkAxjZKJkV275U8IQDQCwDWq5FE+TNHSW80DAA0A4CxAX8UffU7Sug9BQC0A4D1Wy+y4XPo0C2UkwEA/QBgLH+F06hI6OAa2qkAgI4AMFb4Nyf7fhfPvYV6IgCgJwCMRdx8LMxQU55R0HcSAOgKAGN1wwy1noqTAAAAAAAAgJEAzAlz0PcAgN0A7Atz0D0AwG4AWoc56GcAwG4A+oY5aE8AYDUABeG23BoAAKwGYFm4g94LAKwG4LlwB20OAGwGYE247ExiLACwGICIsDeA2xkAsBiAJ8J+KVsLACwGYHD4yMQTAMBeAJo7iE7+GgBYC8ClDuqfFAsAbAXgv53kpbYzAGAnAOkLHYXlfgcArASgx/omjurfuBAA2AhArRSHadlDDADYB8A7uY7T8nUBgHUAzFjivOVOdFMAYBkAsaOiBZbLfMYAgF0AlJ4nUH6emA8ArAJgXWuxzTPqMABgEQDxIwT75OZFAQCLAJjaggtqPQMA1gCQXk+0/PyTQgBgCwAZ45sI179aFxgAGAfAieHi5eeDGACwA4CyXIny88XdAYAVABTUkeu1vZwBAAsAiG0XLVV+Po0BAAsAEDP+TtFTDQGA+QCs+0B219z2YTslAADtARA2/k6qzREGAEwHoKKFbPl52pMMABgOwF1/kC4/T9zMAIDZAGSMT5Ovf7NZDACYDUCt/5IvP/9kMAMARgOQTeqj+nIlAwAmA1BwlNQ6bXsOAwAGAxDRP5pS/rx2jocCAHQE4KrelPLzwxsYADAaAFK7rKR2Ip0SAYCOABAU90E3oaEAALsAWDRScCgAwCYAoj+OYAAgsAAI98kFAFYBMChbZigAwBIAhm+SGwoAsAKAxM4NGQAILAChSc2lhwIAzAdgzEOEoQAA0wFIOqs+AwCBBSBuWhRtKADAaACEjb8ztDzcd2UAoC8A0ZMjyEOZEuYcjwIAXQGQMv7O0CNhztIVAGgKwLhsJUMpCRctjQAAOgJw7hRFs3pLuDOdDwD0AyBvQUNVs9or3LlWAQDlAMQSjb9GzRVOa7gtR54CAKoB2Hseqf59H1I6rfvDne9eAKAUgKibaIk/mvF3ps4Jd8ZbAYBCALL+3oZS/riOUaqndXzYky4HAMoAWN2CdPe/ZqT6aT0e9qwXdQcAagCQ2OPvNONvnhvv5L3C/yLtLwAACgDIaNuEUn41xl8V2ubgk0M3AEAG4EQK6d9/oWuGzEAHZ79xMACgAVD2NC3x94178/qYkwE0fikVAMgDINLcw13jrwo1dfZe8v5gACAJgPQefz8bf/Nnujux05yNI6ZtPACQAaCUZvyNKXF7Yvs4jp9kAwBhAHQz/qpQxLmOf4seBwCCv6/aGX9VaZVACqElABDQVJrx13WkNzNb2Mz5mK5cDgCc6q77acZff8/COO+JjOvNAgDgRDl/SqOUv/HlDbyb2n8Uiwyt/bMAwMGBhpP+/Qd5+8C9R+zF9NoMABDG+MsllV92qa/8U8AfBd9NRwKAGlRAM/4SP/Pedp0sOEY/XCFTAIhdRjP+Gs304/56WHScvZ8HAFVqDc34u6SE+aK/FIuONK9VBAAw0firRkslnlRbAoDTRWju8S/jb1oU80+HxAecuRwAqDT+3vLTaWcNZEY/vxcAMM/4q0bZzSSG3b4CABhn/FWnEpnQoneukNYAdDmX9O8/KJvpoC5xMoN/f2TgATDN+KtWy6QISH4pPtAAyHb19dH4q1a15S6ld1lwATDT+KtW7+bJ5VY9cIX0BKCU1txjTB+mmS5sL/kY0z2IAER9YKrxV70qu8pdjOtZIf0AiB/RjFL+uB//zHRU05WSVLvsCmkHQAXR+LuQ6arNV8td0p0VAQKA0tWXu7XUV5V6fCl3E3DVFdIKgJy25ht/NWrWr+Su7MarAgEA0fgbl820V4PWctfmXlZIHwDKSF191e3x57KuuEju+txyhXQBgGr8dW7IDFHUBZKX6I4rpAcAlhl/YTSqWO4yBw2xFYDbzUz8Sav5xZKuUG1LASApqVV9ZprqFyXo4gqZDoBHS32V69LL5K63/WoAYIjxF0YNL9fDFTIaAP8Tf+a7QgYDkHy0ATNaWrhC5gJggvFngCtkKgCmGH8uuUJpPSMCDYBBxl84tZN1hboHFwDDjD+XXKGk2kEFoG8Js0r+ukLGAWCi8aezK2QYAKYaf665QjnBAsBc4y+c+vjlCpkEgNnGn6aukDkANC5vwKyWP66QMQDYYPzp6AoZAoAlxp9brtCt3e0GwCLjzy1XaKzOAMSugPHnviuUry0AnxK7+pawQMljV8h1AKJuC8H409gVchmArFW0pb52Gn9uuULTr9INgKnWLvXV1BVaH68TAOnXw/jz2hX6bZk2AOTQuvpab/xp4gq5BkAtWlffceezoMsbV8glAN6h7fHXaQqDvHGFXAEgOEt9NXWFGuX7CUDsqCAt9dXUFbrPPwBKYfzp4ArN7eEPAFGtaXv8Bc/489kVUgsAjD+dXKE98V4DAOPPPFdIIQBU429eBErtvSukDIAMmvGXEHDjL6wr1EFuXnO7ewQAsasvjD+/XCE1AMD4M9YVUgEAjD+DXSE6ALHtiMZfS5TWR1eIDACMP7NdISIA1K6+MP78doVIAFC7+sL489IVukU5ADD+zHKFRkQoBQDGnxWukCwAMP4scYUkAYDxZ4srJAVAGYw/Y12h6PvIAMD4s8kVEgYAxp9drpAoADD+rHCFmkoCAOPPOldIBAAYfxa6QgIAEI2/rTD+dHSFHAOQfj+MP8tcoXkCAGSMh/FnpyvkDAAYf9a6Qk4AoBp/G1EhfV2h5WEBIBt/qaiPByqRdIXywvz92Mc/wPgzQoVruRsiGT+875MojP6ukGuC8WeIK+SO4oZ1Q0lMcYVcEIw/o1wh1YLxZ5wrpFIJ5f1QCeNcIXWC8WemK6RIMP78l2xWSIFg/Gkh2awQVTD+gu0K9Z2FiQ+wKwTjL9CuEIy/YLtCMP4C7QpFj4XxF2BXKOH3MP60Var7rtBCGH9BdoVg/AXaFYLxF2hXCMZfsF2hiTD+guwKwfgLtCsE4y/YrhCMv0C7QjD+Au0KwfgLtisE4y/QrhCMv0C7QokLYPwF2BWC8RdsVwjGn0Wu0Fbh8me+DuPPIsUuE9v1J/l/8jFplnkCqzKd+75n/wUTZp8yrrvRUfnThm3AZNmp+nUnNQ672KNnL0yUxfrz0oOJ1b/39V0/GlNkvXJW73m6+Mzf/cuGzcNrf2AU0fz43y4/+46tL++/5KkHr39j5/IJaOsBQRAEQRAEQWH1fyxodzwuFhjIAAAAAElFTkSuQmCC;" vertex="1" parent="BqjSLN71TK_Zf-umYn8F-30">
          <mxGeometry x="6" y="23" width="68" height="68" as="geometry" />
        </mxCell>
        <mxCell id="BqjSLN71TK_Zf-umYn8F-26" value="&lt;ul&gt;&lt;li&gt;base de datos no-sql&lt;/li&gt;&lt;/ul&gt;" style="text;strokeColor=none;fillColor=none;html=1;whiteSpace=wrap;verticalAlign=middle;overflow=hidden;align=left;" vertex="1" parent="BqjSLN71TK_Zf-umYn8F-30">
          <mxGeometry x="52" y="31" width="219" height="33" as="geometry" />
        </mxCell>
        <mxCell id="BqjSLN71TK_Zf-umYn8F-31" value="" style="group" vertex="1" connectable="0" parent="1">
          <mxGeometry x="7" y="393" width="287" height="107" as="geometry" />
        </mxCell>
        <mxCell id="BqjSLN71TK_Zf-umYn8F-5" value="" style="shape=image;verticalLabelPosition=bottom;labelBackgroundColor=default;verticalAlign=top;aspect=fixed;imageAspect=0;image=data:image/png,iVBORw0KGgoAAAANSUhEUgAAAgAAAAIACAMAAADDpiTIAAAABGdBTUEAALGPC/xhBQAAAAFzUkdCAK7OHOkAAAL9UExURQAAAAAAAAAAAAAAAAAAAAAAAAAAAAAAAAAAAAAAAAAAAAAAAAAAAAAAAAAAAAAAAAAAAAAAAAAAAAAAAAAAAAAAAAAAAAAAAAAAAAAAAAAAAAAAAAAAAAAAAAAAAAAAAAAAAAAAAAAAAAAAAAAAAAAAAAAAAAAAAAAAAAAAAAAAAAAAAAAAAAAAAAAAAAAAAAAAAAAAAAAAAAAAAAAAAAAAAAAAAAAAAAAAAAAAAAAAAAAAAAAAAAAAAAAAAAAAAAAAAAAAAAAAAAAAAAAAAAAAAAAAAAAAAAAAAAAAAAAAAAAAAAAAAAAAAAAAAAAAAAAAAAAAAAAAAAAAAAAAAAAAAAAAAAAAAAAAAAAAAAAAAAAAAAAAAAAAAAAAAAAAAAAAAAAAAAAAAAAAAAAAAAAAAAAAAAAAAAAAAAAAAAAAAAAAAAAAAAAAAAAAAAAAAAAAAAAAAAAAAAAAAAAAAAAAAAAAAAAAAAAAAAAAAAAAAAAAAAAAAAAAAAAAAAAAAAAAAAAAAAAAAAAAAAAAAAAAAAAAAAAAAAAAAAAAAAAAAAAAAAAAAAAAAAAAAAAAAAAAAAAAAAAAAAAAAAAAAAAAAAAAAAAAAAAAAAAAAAAAAAAAAAAAAAAAAAAAAAAAAAAAAAAAAAAAAAAAAAAAAAAAAAAAAAAAAAAAAAAAAAAAAAAAAAAAAAAAAAAAAAAAAAAAAAAAAAAAAAAAAAAAAAAAAAAAAAAAAAAAAAAAAAAAAAAAAAAAAAAAAAAAAAAAAAAAAAAAAAAAAAAAAAAAAAAAAAAAAAAAAAAAAAAAAAAAAAAAAAAAAAAAAAAAAAAAAAAAAAAAAAAAAAAAAAAAAAAAAAAAAAAAAAAAAAAAAAAAAAAAAAAAAAAAAAAAAAAAAAAAAAAAAAAAAAAAAAAAAAAAAAAAAAAAAAAAAAAAAAAAAAAAAAAAAAAAAAAAAAAAAAAAAAAAAAAAAAAAAAAAAAAAAAAAAAAAAAAAAAAAAAAAAAAAAAAAAAAAAAAAAOafOxsAAAD+dFJOUwBupP5VWqqRTbEB/Rfn+wL8AwT49Q7u+uIHCKn59/YiCQXx7CHXBijdHAq9ym30ExAPoHjz8IFBZOXymic33LQpfjRUxxUe6wuMbxLDy0U/0tENMdOLX1aPuTMaDB2Y33A1ZS7WXLiAUS/Q7d6rXlJGnTbbER9A6XWXXah9t8jg78WSZmFZiIlySDmVoWcZgyROLa1Th0faGJ/GPdWmo3vCzyu6ooTNuzqG49QgdiM82UmssLLArkK8d0rBtUNqaTCOPrNLV8m/Y0S+JnPMO3/OtqWebJSnMsQsUI3YnEzkYljmOHxba5N5ipBPha+bKuqZ6IIUJRtxdBbhYJZ6yd5C0QAAHc9JREFUeNrtnXd8F0X+xke/IJBOElIoSSCQSCIpJBCKwSBFAhIQlR56ETya9CrSQaSciIhUFQWxoCieYgEB+9l7P/upZ7l+vzKv3/1O7wBJ8t2Zz+zuzOzz/JvXa3d2Pu/sd/fZZ+bDGARBEARBEARBEARBEHSq/lHyxZd/WDT8ouKYhDbR236z40+/G52FWQmIWrb7bkyIn6GEa1ZUAALrdc+C8yJ5tco7eKIh5shepfbPraH6P2nxsAmYKDtVWPQJd6JQ7iMRmC3rlFPUhjvWeQ9hwuxS/Sc+4kIaVIZJs0hPXsJF1fiGHMybJRqyI8QllPIhps4GZT1czCVVrzumz3h92ILLq/jupphBo5V+Aadp/4uYRHM1dH0TTlXka70wkYZqQApXocxR8IVM1OjnuCrt+jWm0zQV1Inh6pRc3gNTapJiR0VztUq5ArNqjkrP4+pVrzkm1gxF3RTJ3VBiEUwBAxQ/og13S2PuxfzqrooW3EWFWkdhinVW5STusmAKaKyM8WncfW0djZnWU++eyz1RzMB+mGz9lH0H90wpXTDfmqnf7xtzL/UKTAGdFDE5mnusxJ0wBbTR4Gu4D2pRgpnXQvkdI7kvCu2AKaCB8dfqSu6bkq6DKeCzJPLeStV1MGrgo1qeHeI+C6aAf0rdmUeq3ZWvtXtrSE7BXav/dxflKSJlCkrhi+p2IpV/4pRT3uP+ekMzwqEe3YBqeK70V0jl7/TNLx7f8n8k3AUSF6SiIp5q6D5S3juxcxUFK91NMQWwnNhL0fLeoUYtq36j7En4HQhthynglSZcTLr7963ewWt5DuG4i1vFojYeaMYSUt47qVX9mo6+mvJJ+akLUR63Fbt0NqX8cdPC3agz2iYQDr+kAUrkqj6l5b0XjXRwjuxcwhmil6NI7inqNpLxF/2MQ+f+c8rH5UHno1DuKGsVxazhyQOd354L3iCYAmkvwRRwQ1Npee9bxdZ3XtWb4jI9i3Kp1l33exziq08yBeavQ8lUipj3Tmsrs+HXlkYhiilQH2VTpi60vHe9dNlfnemEs94OU0CRsn9DW8+3Wv7UDccTPjnEXQtTQIEKy5Mp5e8whxbe3UChL3os6kcUMe8duXYIeQgn2lPePWAKkDRyK+nuv3uvkntQnTj5ISTsQf8BaRHz3pmjVH2dG0kyBVajklKK77mY9NlnrsLt/WKfIGw6UV38AKpRfWh578OK13BHvUowBTqMgCkgqMr5pM8+H7nw+F3xPiWBOhI1FVBqESnvnXCDK5v6ZS2gmALDZqCuTlWXZvwtdO3VK30hYViz56GyjnTPo7S893E3BzfgTsLQnoMpEF5DV5A2eije6fK3+ELKDrQJ+zJQ4ZqNv9+5kvdWqgmUVNq5j6DINc0tMe89y5NRxl6XRBjkJJgC1Rp/b7iZ91ZqClCyiR1egClQ9f9VJsn46+jpwpxZlHzaxDUo9xm6tzfp7t/V6/RF1k5CRimyI0yB07WFmPfu78NOLemU19XMySj6Kf9NczzLeyvVJsory4PoQvNvbablvQfd4p9pUU54bEVr2p/vpNfT8t6bfB39aMoOhVcfR/kz2tI2enjJ77xN7HWUXeoOBr01ba3htLy3Dhv25rcmPMAW3x0f4PKX5ZLKP+YxTa6jzzbCVVyyN6jlLzhKyns3m6PPZs1ZRYkEUyCYrWkj+hPz3nrtyDOT0qM68+PgbTh7FW2jh976manfUEyBwwEzBbp9p0neW6kpsJLwk5a8MkCmQHxPUmO/mGt1NdJHv00xNN4NSv1n0fLeD2rcsytiWabpL7Wuq/Ic0meflNp6X17+NJIpYH0XmoY7dcx7K9XNlBuc7a1piXnvY0akauPnECAPte5mb/mfJ+a9jclTVj5AesWx1BQYupKU9+7wlUl7r22k3Oq22mgKRIylrKjgofmGZWl7rKCYAu/1sK3+E94m3f0nzjLvkr+nRNwta02bPzeOUv4kM3dci+j/A+GiH7DHFKDmvYcZ+1xM2uEk8StLTIGbbyfd/bcavdveGoop0GKWBeXfsoOW955n+DtR/KpiiilgehearIeLKeVPPmrBTostJ1Eef8xuTUvNe2fD/+Rdjxh73ekHSeUfvonZoox9BA/M1Na0OcS8d2er9lfMfo4wF+1NNAVq0TZ6OGTbp3HalrcLTZuOdyzJe6tUwTBKF5rOJn0JKahD2uhh8QuWxiJKX6aYAiXGGH/LaHnv1vZ2YKW1pt1hxsSU0vLeT9m9ecYQUmvax/VvTbvlA1Le+4/trO++u/pXhPlZdET3Wxwt770kCBunkFrTxryn8/KBZ2l579zRLBjKfpqyp4C2b0iVk2h57xMsOKK0po0sz9LyxvZSGinv/W2wtkuZcS3hWWlRpX4XtJGW937gLyxoorSm/aRUtx+1W2l5780sgKK0pk3T6utAP2Le++4sFkwRWtPGfazNVUT0p7TV46EdQd47eWon6UfBJzS5hAnXkO7+E19kgZZ8a9pILbYa7UZs7PcF9s2Wbk0bU9f3sdO2yONxw/IZxNgAyd/QxCM+D/xJmvG3C93Vf5Zsa9rhvi6YGPImLe/9OQp/UiPlPqHm+vfpjJj3Tijvh6qf9msq15r2Yb/G+yEt7/0K2qedoSiZO2rjt3wZa/oxUvnPnYJyVyWZ1rQTfdhpeOh65L1d+l2VaE37guejXE5s7Nccha7h3ir8UaX4r96OcPRzpLv/mIdQ5DCmgOhGKh94OTpq3ntEU1Q4vCkgNscx3j1Qxy69iJT3vqkbyutEg8VMge1ejYua9x6J0jr9TxNqTRtzlzevqTfRPvu0i0BhBWZbpI3i1x4MKH4ErbHf14UoqtDD1hKBrwPN3N9TrmI/6e7/NFokCj5szRaa33kuj6dyEqn8lm15577uFX3YynV1OBnjSXnvJt9moKQiGvKq8DeByHUujuddYt47HSUVUWqRzFfWUa6NJ/sOUvkP3IeSCqnujXL/Zi4Np997pMZ+Hf4O40/s322Q5EznuTLRtF1teOjVliipiAovl19e4cZKocHIe3spWh9N9R+F84mN/ZbGoqYiKu1N+ndrpNr4e5yY9+6FkoqI6LNzvl/teKh570tRUhFlrWrGiWqs8imwZSNa3rs2Siqk1Tdyup5Xh2MRrbHfSuS9hZR+AVchZZsI1qXhuBB5byENXdFYSf25otvu8zQcp29ESYVe/ealcEVapQTHfch7eymi03KaFigYzwBi3nsmSirktHSMVFd//i15PEd2kQZwSQlKKqKmf2vDVeoocTwzlpDy3klnYaMHIVVcxtWqDmk4ohGkX+YRLN7f251Xv/s51wmAT2l570XIewuJ2EtHOQBCCeQzNRt5by+ftZUDQM17D0TeW0gTdnGuEwBTaRs93IG8t9ir3xsxXCcA7qI9jCDvLXi3fTyTc40AIOa909bnoKYi6nMJ5zoB0IWW966HvLeQKueHuE4AZNMa+7WoQEmF7ra0bgr8lTpqASgsp+W970be28u7bafj7CyVAEQ8Q2vstxZ5byH9mna3bTYniykFIPti0nh270VJRUTcVidy7ZD/P4o6AGKLSBmUzFHIe4uIuK0O7/3zkg9lAESRFvvFzUXeW0g30+L+J312VQC8SPrsd3g0SiqiIdtJr37JAxv851CKAJhM+Q4VPRYlFZHcSu+TGpd9ysHUALCTAGTCDT1QUxHVJb76nd4PRAkAlyPv7ZmyXyGVv3hnKlMOQB0CjsdRUiGj7SjJaAu9OuSXR1QAQFv5vPeCVNRUxGgjrfTmfHcVK+vpALSSxnE7jD8hraEl7GZfV1XAlgxAhawd1Rd5byFtoa30Tl4yo8rDUgHYIBlFuPJ15L1FlDWHttK72ogVEYCsl+WMv2nIewtpMy1hl7Kp2iMTASiXGk9X5L2FRFzpXePaShoAJTI/S9HPIO8tIuJK7zBrK0kApB6g+dCQg1e/sXeS/v0nzqr5+CQAxouP59ZbUFMREVd6J7UK96xNAWCm8BegX72Lkoooahrp1S/my/Af2SkATBPNe7dF3ltE8T1pK70fdPKRnQDA84IWUD009hMScaV3ygBHZyEA8KrQeLY9i5KK6B7a4qpEp3dbeQAqRb5LNZuDvLeIiCu9Q4cc323lAVghHECFnIq40lukjao0AKnOPwIcKEVJRXQpLV4v9plFGoApAm8je3D/d678N+Io5Y/rKPaZRRqAgyKjenkCCuvw1Y+40nvXhYInlAWggZg/nfAwvv46UR/aq99Hy4XPKAvAJuEvgGUobzhVTiLF/aXy1bIAvCY8vLyz8BGwRhH31eBcamMFWQBk3lNy70GVq1eXqzlRzEMAKqVG2GwU6lyNynI5NwmAE7LLQBAErkrEld4+ALBSdpCZWAd4hqgrvf0A4AH5YV7/Z5T8NN18O+fGATCdskDhChT9pIbsULbJl4cAxJJ+skJrC1D4n5T6VR7nBgKwhTjU9mj+/S8RV3r7B8AR6lhDw4ai/MSV3n4C8Bh9tJ1uDnj5Cwcmc2MB+FDBcCMHZgS4/NSV3j4D0EXJgN+/KrD1Lz2Pc5MBqK1mxDF7sgJZ/i23ubK/s3kABDMpQl3pbRUAvPGC+IDVn7jS2zYAgpYUUdTT2yYAeNoLgUmKKOvpbRUAnD8YjKQIdaW3vQAEIykyuCtpjpK+sBgAzsd1t7z83Wg9veOGdWNWA8CvnGdz+akrvQ+/9c+D2A0A53+wd+cw6krv2v86iu0A8NlTLH31u540LU32/Rz3tx4AzrdbmBSh9vQ+2UfRIADGye5ucKd1SZEBH5HKP+axk4cyCICz2QnJNY6hjv1sKv8E2krvxSNOXVdtFABsnaznebU9m0jnz6Wt9P7FhrpmAcDYsg6SSZGvM+x49Xv8StpHkl+u9DYNANZddrnTjTYkRYg9vaPHnvGFxDgAWESrRMmkyA2mJ0XcWOltHgCMbXhbcgb6Gp0UyVhAi/sfq7KTlokAsPoPJ0gmRTqbmxQh9vQ+UM27sJEAMPb9bsl56F1mZvnLqD29q9tSy1AAWNPxkgH4tDkG9pOm9vRuXf0XEVMBYGzwtqAkRWKXknoo80Vraji4uQCwhislHZHix42qP3Gld5heKgYD8M+pkV1QblBShLjSO6E8TC8VowFgPZZIJmLaTDaj/NSe3uGbKJsNAGMVsttgHVxnQP3V9vS2EgDWYJrkLfKHTbqXP3shqfwdipw0UTYeAMY2tpecofn5Ope/sJzW2O02Z3unWQAA69VIcpLaP6Lvq98yYk/vvQ5PZAMAjA2Q3BIt9JqmSRHiSu/MUY7dLjsAYFHHZJMiD2lY/i2taT29vy50fi5LAGCs/2JJm3RJhmblp670HiTURtMaAFj3O2STInu1qj9xpfdwwZcbewBgEU9Ifi+PuSFVm/K72dPbdgAY2yAbl902WI/yk3t6i2+bbRUALHaV5HoJLZIiEZPbk/79J94rcVK7AGDs+96Ss/db3zuQE3t6Z34h1UHJNgBY/ALJpEiTu31NihBXesdc20vuvNYBwNilEyUn8W3/kiLUld5Pj5Y9s4UAsNQVkkmRvFY+bSxUsZ9U/pQu8qe2EQDG1hyQNVH8SIoQV3o77ukdIABYTh3ZpMjHnr/6raf19J7UnHR6SwFgrEQ2KVLP26QIsad3X+qqV2sBYA06SiZFMmt5V37iSu+kVuTmufYCwNiHuidFqCu9h3Wjj8FmAFivNyWnNtqLpEj867SV3gcuVTEKqwFgrJZsUqR1odv1J6705vwcBgAcGGyHZJMij7lafuJKbwDgXJMlkyKha3NcK39GZwWN3QCAQ627VXKGp7/oUv27KGnsBgAcf2a9TnJ5Tdzv3UiKvJPLOQDwEgDGmu/SJikyQ0lPbwAgqNgRaXKznNxWaVKEutIbAEirTDZpf/todfVX1tMbAEj4Ljsl83bKkiIKe3oDABlJJ0WueV7BTKcW5XEOAPwEgGXtk3wAU5AUUdvTGwBI6tMxkrOdS0uKZN/BOQDQAADWcKBsUqSd/EmJK70BgEIAGOsju7HQA5JJEepKbwCgFgDW70fZpMhymdO50tMbAJC0WbbXYiPhpAhxpTcAcAUANuM2yUmfXVfoPK719AYAVF3xgwdJkeMtOAcAegLAomTD+Fc/6/AM6Y+S6ps4CAC4CQBjnydJ3gTmDnXyqLmSuNJ7Zi0A4C4AbJ3sv+j0sOuwySu9ZzEGANwGgLGlki2o4sprTooQV3r/FPcHAO4DwLoflk2KXFj9Qak9vef+tNIbAHgAAIvtKduCan01PTioK70f/Hf+AAB4AQBjGxbJJkWqbEE1lbjSe8B/jgQAvAGA1S+SbEGVUHTGyjziSu+0U1d6AwCPAGDsiGwLqmtO9wT++mUCpfyhQzNPPRoA8AwAlvWtbFT3t6v+va9MQZdJpPKfsdIbAHgHAGOl26QLd9HTb3639oIDxI8+Sa//8vcEAHgJAGtY7tpnOyevflWs9AYAngLA2JPTfav/rqpcBQDgMQCsx9yQL+X/aGyVwwEAXgPwz5f4q70vf8K+HgwAaAIAm7HW6/rXS69uLADABwAY+6a9l+Ufs7n6kQAAXwBg3SZ5Vv7FLzRlAEA3ABgbkOnNq9+0qBqHAQD8AoCtu8CD+ncdGWYUAMA3ABhb1sHl8kf3D7vaEAD4CADr/htXX/1WOuhXCAD8BIBFtEp0rf7HzncyAgDgKwCMbXjbnfIfcLgNKQDwGQBW/+EE9eVvdndTBgDMAICx73crLn/k2iGOTw4A/AeANR2frLL+i9YInBsAaAAAY29dpu7V7xmhjWYAgBYAsIYr45SUP3lgA7ETAwA9AGBsr4qkyLhs0dMCAF0AYD2WUONinTaKnxUAaAMAYxWkpEiHr2Q2nQYAGgHAGkyTjouFtreUOiUA0AkAxjZKJkV275U8IQDQCwDWq5FE+TNHSW80DAA0A4CxAX8UffU7Sug9BQC0A4D1Wy+y4XPo0C2UkwEA/QBgLH+F06hI6OAa2qkAgI4AMFb4Nyf7fhfPvYV6IgCgJwCMRdx8LMxQU55R0HcSAOgKAGN1wwy1noqTAAAAAAAAgJEAzAlz0PcAgN0A7Atz0D0AwG4AWoc56GcAwG4A+oY5aE8AYDUABeG23BoAAKwGYFm4g94LAKwG4LlwB20OAGwGYE247ExiLACwGICIsDeA2xkAsBiAJ8J+KVsLACwGYHD4yMQTAMBeAJo7iE7+GgBYC8ClDuqfFAsAbAXgv53kpbYzAGAnAOkLHYXlfgcArASgx/omjurfuBAA2AhArRSHadlDDADYB8A7uY7T8nUBgHUAzFjivOVOdFMAYBkAsaOiBZbLfMYAgF0AlJ4nUH6emA8ArAJgXWuxzTPqMABgEQDxIwT75OZFAQCLAJjaggtqPQMA1gCQXk+0/PyTQgBgCwAZ45sI179aFxgAGAfAieHi5eeDGACwA4CyXIny88XdAYAVABTUkeu1vZwBAAsAiG0XLVV+Po0BAAsAEDP+TtFTDQGA+QCs+0B219z2YTslAADtARA2/k6qzREGAEwHoKKFbPl52pMMABgOwF1/kC4/T9zMAIDZAGSMT5Ovf7NZDACYDUCt/5IvP/9kMAMARgOQTeqj+nIlAwAmA1BwlNQ6bXsOAwAGAxDRP5pS/rx2jocCAHQE4KrelPLzwxsYADAaAFK7rKR2Ip0SAYCOABAU90E3oaEAALsAWDRScCgAwCYAoj+OYAAgsAAI98kFAFYBMChbZigAwBIAhm+SGwoAsAKAxM4NGQAILAChSc2lhwIAzAdgzEOEoQAA0wFIOqs+AwCBBSBuWhRtKADAaACEjb8ztDzcd2UAoC8A0ZMjyEOZEuYcjwIAXQGQMv7O0CNhztIVAGgKwLhsJUMpCRctjQAAOgJw7hRFs3pLuDOdDwD0AyBvQUNVs9or3LlWAQDlAMQSjb9GzRVOa7gtR54CAKoB2Hseqf59H1I6rfvDne9eAKAUgKibaIk/mvF3ps4Jd8ZbAYBCALL+3oZS/riOUaqndXzYky4HAMoAWN2CdPe/ZqT6aT0e9qwXdQcAagCQ2OPvNONvnhvv5L3C/yLtLwAACgDIaNuEUn41xl8V2ubgk0M3AEAG4EQK6d9/oWuGzEAHZ79xMACgAVD2NC3x94178/qYkwE0fikVAMgDINLcw13jrwo1dfZe8v5gACAJgPQefz8bf/Nnujux05yNI6ZtPACQAaCUZvyNKXF7Yvs4jp9kAwBhAHQz/qpQxLmOf4seBwCCv6/aGX9VaZVACqElABDQVJrx13WkNzNb2Mz5mK5cDgCc6q77acZff8/COO+JjOvNAgDgRDl/SqOUv/HlDbyb2n8Uiwyt/bMAwMGBhpP+/Qd5+8C9R+zF9NoMABDG+MsllV92qa/8U8AfBd9NRwKAGlRAM/4SP/Pedp0sOEY/XCFTAIhdRjP+Gs304/56WHScvZ8HAFVqDc34u6SE+aK/FIuONK9VBAAw0firRkslnlRbAoDTRWju8S/jb1oU80+HxAecuRwAqDT+3vLTaWcNZEY/vxcAMM/4q0bZzSSG3b4CABhn/FWnEpnQoneukNYAdDmX9O8/KJvpoC5xMoN/f2TgATDN+KtWy6QISH4pPtAAyHb19dH4q1a15S6ld1lwATDT+KtW7+bJ5VY9cIX0BKCU1txjTB+mmS5sL/kY0z2IAER9YKrxV70qu8pdjOtZIf0AiB/RjFL+uB//zHRU05WSVLvsCmkHQAXR+LuQ6arNV8td0p0VAQKA0tWXu7XUV5V6fCl3E3DVFdIKgJy25ht/NWrWr+Su7MarAgEA0fgbl820V4PWctfmXlZIHwDKSF191e3x57KuuEju+txyhXQBgGr8dW7IDFHUBZKX6I4rpAcAlhl/YTSqWO4yBw2xFYDbzUz8Sav5xZKuUG1LASApqVV9ZprqFyXo4gqZDoBHS32V69LL5K63/WoAYIjxF0YNL9fDFTIaAP8Tf+a7QgYDkHy0ATNaWrhC5gJggvFngCtkKgCmGH8uuUJpPSMCDYBBxl84tZN1hboHFwDDjD+XXKGk2kEFoG8Js0r+ukLGAWCi8aezK2QYAKYaf665QjnBAsBc4y+c+vjlCpkEgNnGn6aukDkANC5vwKyWP66QMQDYYPzp6AoZAoAlxp9brtCt3e0GwCLjzy1XaKzOAMSugPHnviuUry0AnxK7+pawQMljV8h1AKJuC8H409gVchmArFW0pb52Gn9uuULTr9INgKnWLvXV1BVaH68TAOnXw/jz2hX6bZk2AOTQuvpab/xp4gq5BkAtWlffceezoMsbV8glAN6h7fHXaQqDvHGFXAEgOEt9NXWFGuX7CUDsqCAt9dXUFbrPPwBKYfzp4ArN7eEPAFGtaXv8Bc/489kVUgsAjD+dXKE98V4DAOPPPFdIIQBU429eBErtvSukDIAMmvGXEHDjL6wr1EFuXnO7ewQAsasvjD+/XCE1AMD4M9YVUgEAjD+DXSE6ALHtiMZfS5TWR1eIDACMP7NdISIA1K6+MP78doVIAFC7+sL489IVukU5ADD+zHKFRkQoBQDGnxWukCwAMP4scYUkAYDxZ4srJAVAGYw/Y12h6PvIAMD4s8kVEgYAxp9drpAoADD+rHCFmkoCAOPPOldIBAAYfxa6QgIAEI2/rTD+dHSFHAOQfj+MP8tcoXkCAGSMh/FnpyvkDAAYf9a6Qk4AoBp/G1EhfV2h5WEBIBt/qaiPByqRdIXywvz92Mc/wPgzQoVruRsiGT+875MojP6ukGuC8WeIK+SO4oZ1Q0lMcYVcEIw/o1wh1YLxZ5wrpFIJ5f1QCeNcIXWC8WemK6RIMP78l2xWSIFg/Gkh2awQVTD+gu0K9Z2FiQ+wKwTjL9CuEIy/YLtCMP4C7QpFj4XxF2BXKOH3MP60Var7rtBCGH9BdoVg/AXaFYLxF2hXCMZfsF2hiTD+guwKwfgLtCsE4y/YrhCMv0C7QjD+Au0KwfgLtisE4y/QrhCMv0C7QokLYPwF2BWC8RdsVwjGn0Wu0Fbh8me+DuPPIsUuE9v1J/l/8jFplnkCqzKd+75n/wUTZp8yrrvRUfnThm3AZNmp+nUnNQ672KNnL0yUxfrz0oOJ1b/39V0/GlNkvXJW73m6+Mzf/cuGzcNrf2AU0fz43y4/+46tL++/5KkHr39j5/IJaOsBQRAEQRAEQWH1fyxodzwuFhjIAAAAAElFTkSuQmCC;" vertex="1" parent="BqjSLN71TK_Zf-umYn8F-31">
          <mxGeometry x="28" y="24" width="68" height="68" as="geometry" />
        </mxCell>
        <UserObject label="&lt;font style=&quot;font-size: 17px;&quot;&gt;Dashboard GUI&lt;/font&gt;" placeholders="1" name="Variable" id="BqjSLN71TK_Zf-umYn8F-6">
          <mxCell style="text;html=1;strokeColor=none;fillColor=none;align=center;verticalAlign=middle;whiteSpace=wrap;overflow=hidden;" vertex="1" parent="BqjSLN71TK_Zf-umYn8F-31">
            <mxGeometry x="3" y="-7" width="143" height="25" as="geometry" />
          </mxCell>
        </UserObject>
        <mxCell id="BqjSLN71TK_Zf-umYn8F-20" value="&lt;div&gt;&lt;span style=&quot;white-space: pre;&quot;&gt;&#x9;&lt;/span&gt;REACT&lt;/div&gt;&lt;ul&gt;&lt;li&gt;websocket&amp;nbsp;&lt;/li&gt;&lt;/ul&gt;" style="text;strokeColor=none;fillColor=none;html=1;whiteSpace=wrap;verticalAlign=middle;overflow=hidden;align=left;" vertex="1" parent="BqjSLN71TK_Zf-umYn8F-31">
          <mxGeometry x="79" y="16" width="208" height="80" as="geometry" />
        </mxCell>
        <mxCell id="BqjSLN71TK_Zf-umYn8F-32" value="" style="group" vertex="1" connectable="0" parent="1">
          <mxGeometry x="215" y="392" width="286" height="109" as="geometry" />
        </mxCell>
        <mxCell id="BqjSLN71TK_Zf-umYn8F-16" value="&lt;div&gt;&lt;span style=&quot;white-space: pre;&quot;&gt;&#x9;&lt;/span&gt;TOPICS MQTT&lt;/div&gt;&lt;ul&gt;&lt;li&gt;cuartofrio/sensor&lt;/li&gt;&lt;li&gt;&lt;span style=&quot;background-color: transparent; color: light-dark(rgb(0, 0, 0), rgb(255, 255, 255));&quot;&gt;cuartofrio/recomendaciones&amp;nbsp;&lt;/span&gt;&lt;/li&gt;&lt;/ul&gt;" style="text;strokeColor=none;fillColor=none;html=1;whiteSpace=wrap;verticalAlign=middle;overflow=hidden;align=left;" vertex="1" parent="BqjSLN71TK_Zf-umYn8F-32">
          <mxGeometry x="78" y="22" width="208" height="80" as="geometry" />
        </mxCell>
        <mxCell id="BqjSLN71TK_Zf-umYn8F-17" value="" style="group" vertex="1" connectable="0" parent="BqjSLN71TK_Zf-umYn8F-32">
          <mxGeometry width="143" height="109" as="geometry" />
        </mxCell>
        <mxCell id="BqjSLN71TK_Zf-umYn8F-9" value="" style="shape=image;verticalLabelPosition=bottom;labelBackgroundColor=default;verticalAlign=top;aspect=fixed;imageAspect=0;image=data:image/png,iVBORw0KGgoAAAANSUhEUgAAAgAAAAIACAMAAADDpiTIAAAABGdBTUEAALGPC/xhBQAAAAFzUkdCAK7OHOkAAAL9UExURQAAAAAAAAAAAAAAAAAAAAAAAAAAAAAAAAAAAAAAAAAAAAAAAAAAAAAAAAAAAAAAAAAAAAAAAAAAAAAAAAAAAAAAAAAAAAAAAAAAAAAAAAAAAAAAAAAAAAAAAAAAAAAAAAAAAAAAAAAAAAAAAAAAAAAAAAAAAAAAAAAAAAAAAAAAAAAAAAAAAAAAAAAAAAAAAAAAAAAAAAAAAAAAAAAAAAAAAAAAAAAAAAAAAAAAAAAAAAAAAAAAAAAAAAAAAAAAAAAAAAAAAAAAAAAAAAAAAAAAAAAAAAAAAAAAAAAAAAAAAAAAAAAAAAAAAAAAAAAAAAAAAAAAAAAAAAAAAAAAAAAAAAAAAAAAAAAAAAAAAAAAAAAAAAAAAAAAAAAAAAAAAAAAAAAAAAAAAAAAAAAAAAAAAAAAAAAAAAAAAAAAAAAAAAAAAAAAAAAAAAAAAAAAAAAAAAAAAAAAAAAAAAAAAAAAAAAAAAAAAAAAAAAAAAAAAAAAAAAAAAAAAAAAAAAAAAAAAAAAAAAAAAAAAAAAAAAAAAAAAAAAAAAAAAAAAAAAAAAAAAAAAAAAAAAAAAAAAAAAAAAAAAAAAAAAAAAAAAAAAAAAAAAAAAAAAAAAAAAAAAAAAAAAAAAAAAAAAAAAAAAAAAAAAAAAAAAAAAAAAAAAAAAAAAAAAAAAAAAAAAAAAAAAAAAAAAAAAAAAAAAAAAAAAAAAAAAAAAAAAAAAAAAAAAAAAAAAAAAAAAAAAAAAAAAAAAAAAAAAAAAAAAAAAAAAAAAAAAAAAAAAAAAAAAAAAAAAAAAAAAAAAAAAAAAAAAAAAAAAAAAAAAAAAAAAAAAAAAAAAAAAAAAAAAAAAAAAAAAAAAAAAAAAAAAAAAAAAAAAAAAAAAAAAAAAAAAAAAAAAAAAAAAAAAAAAAAAAAAAAAAAAAAAAAAAAAAAAAAAAAAAAAAAAAAAAAAAAAAAAAAAAAAAAAAAAAAAAAAAAAAAAAAAAAAAAAAAAAAAAAAAAAAAAAAAAAAAAAAAAOafOxsAAAD+dFJOUwBupP5VWqqRTbEB/Rfn+wL8AwT49Q7u+uIHCKn59/YiCQXx7CHXBijdHAq9ym30ExAPoHjz8IFBZOXymic33LQpfjRUxxUe6wuMbxLDy0U/0tENMdOLX1aPuTMaDB2Y33A1ZS7WXLiAUS/Q7d6rXlJGnTbbER9A6XWXXah9t8jg78WSZmFZiIlySDmVoWcZgyROLa1Th0faGJ/GPdWmo3vCzyu6ooTNuzqG49QgdiM82UmssLLArkK8d0rBtUNqaTCOPrNLV8m/Y0S+JnPMO3/OtqWebJSnMsQsUI3YnEzkYljmOHxba5N5ipBPha+bKuqZ6IIUJRtxdBbhYJZ6yd5C0QAAHc9JREFUeNrtnXd8F0X+xke/IJBOElIoSSCQSCIpJBCKwSBFAhIQlR56ETya9CrSQaSciIhUFQWxoCieYgEB+9l7P/upZ7l+vzKv3/1O7wBJ8t2Zz+zuzOzz/JvXa3d2Pu/sd/fZZ+bDGARBEARBEARBEARBEHSq/lHyxZd/WDT8ouKYhDbR236z40+/G52FWQmIWrb7bkyIn6GEa1ZUAALrdc+C8yJ5tco7eKIh5shepfbPraH6P2nxsAmYKDtVWPQJd6JQ7iMRmC3rlFPUhjvWeQ9hwuxS/Sc+4kIaVIZJs0hPXsJF1fiGHMybJRqyI8QllPIhps4GZT1czCVVrzumz3h92ILLq/jupphBo5V+Aadp/4uYRHM1dH0TTlXka70wkYZqQApXocxR8IVM1OjnuCrt+jWm0zQV1Inh6pRc3gNTapJiR0VztUq5ArNqjkrP4+pVrzkm1gxF3RTJ3VBiEUwBAxQ/og13S2PuxfzqrooW3EWFWkdhinVW5STusmAKaKyM8WncfW0djZnWU++eyz1RzMB+mGz9lH0H90wpXTDfmqnf7xtzL/UKTAGdFDE5mnusxJ0wBbTR4Gu4D2pRgpnXQvkdI7kvCu2AKaCB8dfqSu6bkq6DKeCzJPLeStV1MGrgo1qeHeI+C6aAf0rdmUeq3ZWvtXtrSE7BXav/dxflKSJlCkrhi+p2IpV/4pRT3uP+ekMzwqEe3YBqeK70V0jl7/TNLx7f8n8k3AUSF6SiIp5q6D5S3juxcxUFK91NMQWwnNhL0fLeoUYtq36j7En4HQhthynglSZcTLr7963ewWt5DuG4i1vFojYeaMYSUt47qVX9mo6+mvJJ+akLUR63Fbt0NqX8cdPC3agz2iYQDr+kAUrkqj6l5b0XjXRwjuxcwhmil6NI7inqNpLxF/2MQ+f+c8rH5UHno1DuKGsVxazhyQOd354L3iCYAmkvwRRwQ1Npee9bxdZ3XtWb4jI9i3Kp1l33exziq08yBeavQ8lUipj3Tmsrs+HXlkYhiilQH2VTpi60vHe9dNlfnemEs94OU0CRsn9DW8+3Wv7UDccTPjnEXQtTQIEKy5Mp5e8whxbe3UChL3os6kcUMe8duXYIeQgn2lPePWAKkDRyK+nuv3uvkntQnTj5ISTsQf8BaRHz3pmjVH2dG0kyBVajklKK77mY9NlnrsLt/WKfIGw6UV38AKpRfWh578OK13BHvUowBTqMgCkgqMr5pM8+H7nw+F3xPiWBOhI1FVBqESnvnXCDK5v6ZS2gmALDZqCuTlWXZvwtdO3VK30hYViz56GyjnTPo7S893E3BzfgTsLQnoMpEF5DV5A2eije6fK3+ELKDrQJ+zJQ4ZqNv9+5kvdWqgmUVNq5j6DINc0tMe89y5NRxl6XRBjkJJgC1Rp/b7iZ91ZqClCyiR1egClQ9f9VJsn46+jpwpxZlHzaxDUo9xm6tzfp7t/V6/RF1k5CRimyI0yB07WFmPfu78NOLemU19XMySj6Kf9NczzLeyvVJsory4PoQvNvbablvQfd4p9pUU54bEVr2p/vpNfT8t6bfB39aMoOhVcfR/kz2tI2enjJ77xN7HWUXeoOBr01ba3htLy3Dhv25rcmPMAW3x0f4PKX5ZLKP+YxTa6jzzbCVVyyN6jlLzhKyns3m6PPZs1ZRYkEUyCYrWkj+hPz3nrtyDOT0qM68+PgbTh7FW2jh976manfUEyBwwEzBbp9p0neW6kpsJLwk5a8MkCmQHxPUmO/mGt1NdJHv00xNN4NSv1n0fLeD2rcsytiWabpL7Wuq/Ic0meflNp6X17+NJIpYH0XmoY7dcx7K9XNlBuc7a1piXnvY0akauPnECAPte5mb/mfJ+a9jclTVj5AesWx1BQYupKU9+7wlUl7r22k3Oq22mgKRIylrKjgofmGZWl7rKCYAu/1sK3+E94m3f0nzjLvkr+nRNwta02bPzeOUv4kM3dci+j/A+GiH7DHFKDmvYcZ+1xM2uEk8StLTIGbbyfd/bcavdveGoop0GKWBeXfsoOW955n+DtR/KpiiilgehearIeLKeVPPmrBTostJ1Eef8xuTUvNe2fD/+Rdjxh73ekHSeUfvonZoox9BA/M1Na0OcS8d2er9lfMfo4wF+1NNAVq0TZ6OGTbp3HalrcLTZuOdyzJe6tUwTBKF5rOJn0JKahD2uhh8QuWxiJKX6aYAiXGGH/LaHnv1vZ2YKW1pt1hxsSU0vLeT9m9ecYQUmvax/VvTbvlA1Le+4/trO++u/pXhPlZdET3Wxwt770kCBunkFrTxryn8/KBZ2l579zRLBjKfpqyp4C2b0iVk2h57xMsOKK0po0sz9LyxvZSGinv/W2wtkuZcS3hWWlRpX4XtJGW937gLyxoorSm/aRUtx+1W2l5780sgKK0pk3T6utAP2Le++4sFkwRWtPGfazNVUT0p7TV46EdQd47eWon6UfBJzS5hAnXkO7+E19kgZZ8a9pILbYa7UZs7PcF9s2Wbk0bU9f3sdO2yONxw/IZxNgAyd/QxCM+D/xJmvG3C93Vf5Zsa9rhvi6YGPImLe/9OQp/UiPlPqHm+vfpjJj3Tijvh6qf9msq15r2Yb/G+yEt7/0K2qedoSiZO2rjt3wZa/oxUvnPnYJyVyWZ1rQTfdhpeOh65L1d+l2VaE37guejXE5s7Nccha7h3ir8UaX4r96OcPRzpLv/mIdQ5DCmgOhGKh94OTpq3ntEU1Q4vCkgNscx3j1Qxy69iJT3vqkbyutEg8VMge1ejYua9x6J0jr9TxNqTRtzlzevqTfRPvu0i0BhBWZbpI3i1x4MKH4ErbHf14UoqtDD1hKBrwPN3N9TrmI/6e7/NFokCj5szRaa33kuj6dyEqn8lm15577uFX3YynV1OBnjSXnvJt9moKQiGvKq8DeByHUujuddYt47HSUVUWqRzFfWUa6NJ/sOUvkP3IeSCqnujXL/Zi4Np997pMZ+Hf4O40/s322Q5EznuTLRtF1teOjVliipiAovl19e4cZKocHIe3spWh9N9R+F84mN/ZbGoqYiKu1N+ndrpNr4e5yY9+6FkoqI6LNzvl/teKh570tRUhFlrWrGiWqs8imwZSNa3rs2Siqk1Tdyup5Xh2MRrbHfSuS9hZR+AVchZZsI1qXhuBB5byENXdFYSf25otvu8zQcp29ESYVe/ealcEVapQTHfch7eymi03KaFigYzwBi3nsmSirktHSMVFd//i15PEd2kQZwSQlKKqKmf2vDVeoocTwzlpDy3klnYaMHIVVcxtWqDmk4ohGkX+YRLN7f251Xv/s51wmAT2l570XIewuJ2EtHOQBCCeQzNRt5by+ftZUDQM17D0TeW0gTdnGuEwBTaRs93IG8t9ir3xsxXCcA7qI9jCDvLXi3fTyTc40AIOa909bnoKYi6nMJ5zoB0IWW966HvLeQKueHuE4AZNMa+7WoQEmF7ra0bgr8lTpqASgsp+W970be28u7bafj7CyVAEQ8Q2vstxZ5byH9mna3bTYniykFIPti0nh270VJRUTcVidy7ZD/P4o6AGKLSBmUzFHIe4uIuK0O7/3zkg9lAESRFvvFzUXeW0g30+L+J312VQC8SPrsd3g0SiqiIdtJr37JAxv851CKAJhM+Q4VPRYlFZHcSu+TGpd9ysHUALCTAGTCDT1QUxHVJb76nd4PRAkAlyPv7ZmyXyGVv3hnKlMOQB0CjsdRUiGj7SjJaAu9OuSXR1QAQFv5vPeCVNRUxGgjrfTmfHcVK+vpALSSxnE7jD8hraEl7GZfV1XAlgxAhawd1Rd5byFtoa30Tl4yo8rDUgHYIBlFuPJ15L1FlDWHttK72ogVEYCsl+WMv2nIewtpMy1hl7Kp2iMTASiXGk9X5L2FRFzpXePaShoAJTI/S9HPIO8tIuJK7zBrK0kApB6g+dCQg1e/sXeS/v0nzqr5+CQAxouP59ZbUFMREVd6J7UK96xNAWCm8BegX72Lkoooahrp1S/my/Af2SkATBPNe7dF3ltE8T1pK70fdPKRnQDA84IWUD009hMScaV3ygBHZyEA8KrQeLY9i5KK6B7a4qpEp3dbeQAqRb5LNZuDvLeIiCu9Q4cc323lAVghHECFnIq40lukjao0AKnOPwIcKEVJRXQpLV4v9plFGoApAm8je3D/d678N+Io5Y/rKPaZRRqAgyKjenkCCuvw1Y+40nvXhYInlAWggZg/nfAwvv46UR/aq99Hy4XPKAvAJuEvgGUobzhVTiLF/aXy1bIAvCY8vLyz8BGwRhH31eBcamMFWQBk3lNy70GVq1eXqzlRzEMAKqVG2GwU6lyNynI5NwmAE7LLQBAErkrEld4+ALBSdpCZWAd4hqgrvf0A4AH5YV7/Z5T8NN18O+fGATCdskDhChT9pIbsULbJl4cAxJJ+skJrC1D4n5T6VR7nBgKwhTjU9mj+/S8RV3r7B8AR6lhDw4ai/MSV3n4C8Bh9tJ1uDnj5Cwcmc2MB+FDBcCMHZgS4/NSV3j4D0EXJgN+/KrD1Lz2Pc5MBqK1mxDF7sgJZ/i23ubK/s3kABDMpQl3pbRUAvPGC+IDVn7jS2zYAgpYUUdTT2yYAeNoLgUmKKOvpbRUAnD8YjKQIdaW3vQAEIykyuCtpjpK+sBgAzsd1t7z83Wg9veOGdWNWA8CvnGdz+akrvQ+/9c+D2A0A53+wd+cw6krv2v86iu0A8NlTLH31u540LU32/Rz3tx4AzrdbmBSh9vQ+2UfRIADGye5ucKd1SZEBH5HKP+axk4cyCICz2QnJNY6hjv1sKv8E2krvxSNOXVdtFABsnaznebU9m0jnz6Wt9P7FhrpmAcDYsg6SSZGvM+x49Xv8StpHkl+u9DYNANZddrnTjTYkRYg9vaPHnvGFxDgAWESrRMmkyA2mJ0XcWOltHgCMbXhbcgb6Gp0UyVhAi/sfq7KTlokAsPoPJ0gmRTqbmxQh9vQ+UM27sJEAMPb9bsl56F1mZvnLqD29q9tSy1AAWNPxkgH4tDkG9pOm9vRuXf0XEVMBYGzwtqAkRWKXknoo80Vraji4uQCwhislHZHix42qP3Gld5heKgYD8M+pkV1QblBShLjSO6E8TC8VowFgPZZIJmLaTDaj/NSe3uGbKJsNAGMVsttgHVxnQP3V9vS2EgDWYJrkLfKHTbqXP3shqfwdipw0UTYeAMY2tpecofn5Ope/sJzW2O02Z3unWQAA69VIcpLaP6Lvq98yYk/vvQ5PZAMAjA2Q3BIt9JqmSRHiSu/MUY7dLjsAYFHHZJMiD2lY/i2taT29vy50fi5LAGCs/2JJm3RJhmblp670HiTURtMaAFj3O2STInu1qj9xpfdwwZcbewBgEU9Ifi+PuSFVm/K72dPbdgAY2yAbl902WI/yk3t6i2+bbRUALHaV5HoJLZIiEZPbk/79J94rcVK7AGDs+96Ss/db3zuQE3t6Z34h1UHJNgBY/ALJpEiTu31NihBXesdc20vuvNYBwNilEyUn8W3/kiLUld5Pj5Y9s4UAsNQVkkmRvFY+bSxUsZ9U/pQu8qe2EQDG1hyQNVH8SIoQV3o77ukdIABYTh3ZpMjHnr/6raf19J7UnHR6SwFgrEQ2KVLP26QIsad3X+qqV2sBYA06SiZFMmt5V37iSu+kVuTmufYCwNiHuidFqCu9h3Wjj8FmAFivNyWnNtqLpEj867SV3gcuVTEKqwFgrJZsUqR1odv1J6705vwcBgAcGGyHZJMij7lafuJKbwDgXJMlkyKha3NcK39GZwWN3QCAQ627VXKGp7/oUv27KGnsBgAcf2a9TnJ5Tdzv3UiKvJPLOQDwEgDGmu/SJikyQ0lPbwAgqNgRaXKznNxWaVKEutIbAEirTDZpf/todfVX1tMbAEj4Ljsl83bKkiIKe3oDABlJJ0WueV7BTKcW5XEOAPwEgGXtk3wAU5AUUdvTGwBI6tMxkrOdS0uKZN/BOQDQAADWcKBsUqSd/EmJK70BgEIAGOsju7HQA5JJEepKbwCgFgDW70fZpMhymdO50tMbAJC0WbbXYiPhpAhxpTcAcAUANuM2yUmfXVfoPK719AYAVF3xgwdJkeMtOAcAegLAomTD+Fc/6/AM6Y+S6ps4CAC4CQBjnydJ3gTmDnXyqLmSuNJ7Zi0A4C4AbJ3sv+j0sOuwySu9ZzEGANwGgLGlki2o4sprTooQV3r/FPcHAO4DwLoflk2KXFj9Qak9vef+tNIbAHgAAIvtKduCan01PTioK70f/Hf+AAB4AQBjGxbJJkWqbEE1lbjSe8B/jgQAvAGA1S+SbEGVUHTGyjziSu+0U1d6AwCPAGDsiGwLqmtO9wT++mUCpfyhQzNPPRoA8AwAlvWtbFT3t6v+va9MQZdJpPKfsdIbAHgHAGOl26QLd9HTb3639oIDxI8+Sa//8vcEAHgJAGtY7tpnOyevflWs9AYAngLA2JPTfav/rqpcBQDgMQCsx9yQL+X/aGyVwwEAXgPwz5f4q70vf8K+HgwAaAIAm7HW6/rXS69uLADABwAY+6a9l+Ufs7n6kQAAXwBg3SZ5Vv7FLzRlAEA3ABgbkOnNq9+0qBqHAQD8AoCtu8CD+ncdGWYUAMA3ABhb1sHl8kf3D7vaEAD4CADr/htXX/1WOuhXCAD8BIBFtEp0rf7HzncyAgDgKwCMbXjbnfIfcLgNKQDwGQBW/+EE9eVvdndTBgDMAICx73crLn/k2iGOTw4A/AeANR2frLL+i9YInBsAaAAAY29dpu7V7xmhjWYAgBYAsIYr45SUP3lgA7ETAwA9AGBsr4qkyLhs0dMCAF0AYD2WUONinTaKnxUAaAMAYxWkpEiHr2Q2nQYAGgHAGkyTjouFtreUOiUA0AkAxjZKJkV275U8IQDQCwDWq5FE+TNHSW80DAA0A4CxAX8UffU7Sug9BQC0A4D1Wy+y4XPo0C2UkwEA/QBgLH+F06hI6OAa2qkAgI4AMFb4Nyf7fhfPvYV6IgCgJwCMRdx8LMxQU55R0HcSAOgKAGN1wwy1noqTAAAAAAAAgJEAzAlz0PcAgN0A7Atz0D0AwG4AWoc56GcAwG4A+oY5aE8AYDUABeG23BoAAKwGYFm4g94LAKwG4LlwB20OAGwGYE247ExiLACwGICIsDeA2xkAsBiAJ8J+KVsLACwGYHD4yMQTAMBeAJo7iE7+GgBYC8ClDuqfFAsAbAXgv53kpbYzAGAnAOkLHYXlfgcArASgx/omjurfuBAA2AhArRSHadlDDADYB8A7uY7T8nUBgHUAzFjivOVOdFMAYBkAsaOiBZbLfMYAgF0AlJ4nUH6emA8ArAJgXWuxzTPqMABgEQDxIwT75OZFAQCLAJjaggtqPQMA1gCQXk+0/PyTQgBgCwAZ45sI179aFxgAGAfAieHi5eeDGACwA4CyXIny88XdAYAVABTUkeu1vZwBAAsAiG0XLVV+Po0BAAsAEDP+TtFTDQGA+QCs+0B219z2YTslAADtARA2/k6qzREGAEwHoKKFbPl52pMMABgOwF1/kC4/T9zMAIDZAGSMT5Ovf7NZDACYDUCt/5IvP/9kMAMARgOQTeqj+nIlAwAmA1BwlNQ6bXsOAwAGAxDRP5pS/rx2jocCAHQE4KrelPLzwxsYADAaAFK7rKR2Ip0SAYCOABAU90E3oaEAALsAWDRScCgAwCYAoj+OYAAgsAAI98kFAFYBMChbZigAwBIAhm+SGwoAsAKAxM4NGQAILAChSc2lhwIAzAdgzEOEoQAA0wFIOqs+AwCBBSBuWhRtKADAaACEjb8ztDzcd2UAoC8A0ZMjyEOZEuYcjwIAXQGQMv7O0CNhztIVAGgKwLhsJUMpCRctjQAAOgJw7hRFs3pLuDOdDwD0AyBvQUNVs9or3LlWAQDlAMQSjb9GzRVOa7gtR54CAKoB2Hseqf59H1I6rfvDne9eAKAUgKibaIk/mvF3ps4Jd8ZbAYBCALL+3oZS/riOUaqndXzYky4HAMoAWN2CdPe/ZqT6aT0e9qwXdQcAagCQ2OPvNONvnhvv5L3C/yLtLwAACgDIaNuEUn41xl8V2ubgk0M3AEAG4EQK6d9/oWuGzEAHZ79xMACgAVD2NC3x94178/qYkwE0fikVAMgDINLcw13jrwo1dfZe8v5gACAJgPQefz8bf/Nnujux05yNI6ZtPACQAaCUZvyNKXF7Yvs4jp9kAwBhAHQz/qpQxLmOf4seBwCCv6/aGX9VaZVACqElABDQVJrx13WkNzNb2Mz5mK5cDgCc6q77acZff8/COO+JjOvNAgDgRDl/SqOUv/HlDbyb2n8Uiwyt/bMAwMGBhpP+/Qd5+8C9R+zF9NoMABDG+MsllV92qa/8U8AfBd9NRwKAGlRAM/4SP/Pedp0sOEY/XCFTAIhdRjP+Gs304/56WHScvZ8HAFVqDc34u6SE+aK/FIuONK9VBAAw0firRkslnlRbAoDTRWju8S/jb1oU80+HxAecuRwAqDT+3vLTaWcNZEY/vxcAMM/4q0bZzSSG3b4CABhn/FWnEpnQoneukNYAdDmX9O8/KJvpoC5xMoN/f2TgATDN+KtWy6QISH4pPtAAyHb19dH4q1a15S6ld1lwATDT+KtW7+bJ5VY9cIX0BKCU1txjTB+mmS5sL/kY0z2IAER9YKrxV70qu8pdjOtZIf0AiB/RjFL+uB//zHRU05WSVLvsCmkHQAXR+LuQ6arNV8td0p0VAQKA0tWXu7XUV5V6fCl3E3DVFdIKgJy25ht/NWrWr+Su7MarAgEA0fgbl820V4PWctfmXlZIHwDKSF191e3x57KuuEju+txyhXQBgGr8dW7IDFHUBZKX6I4rpAcAlhl/YTSqWO4yBw2xFYDbzUz8Sav5xZKuUG1LASApqVV9ZprqFyXo4gqZDoBHS32V69LL5K63/WoAYIjxF0YNL9fDFTIaAP8Tf+a7QgYDkHy0ATNaWrhC5gJggvFngCtkKgCmGH8uuUJpPSMCDYBBxl84tZN1hboHFwDDjD+XXKGk2kEFoG8Js0r+ukLGAWCi8aezK2QYAKYaf665QjnBAsBc4y+c+vjlCpkEgNnGn6aukDkANC5vwKyWP66QMQDYYPzp6AoZAoAlxp9brtCt3e0GwCLjzy1XaKzOAMSugPHnviuUry0AnxK7+pawQMljV8h1AKJuC8H409gVchmArFW0pb52Gn9uuULTr9INgKnWLvXV1BVaH68TAOnXw/jz2hX6bZk2AOTQuvpab/xp4gq5BkAtWlffceezoMsbV8glAN6h7fHXaQqDvHGFXAEgOEt9NXWFGuX7CUDsqCAt9dXUFbrPPwBKYfzp4ArN7eEPAFGtaXv8Bc/489kVUgsAjD+dXKE98V4DAOPPPFdIIQBU429eBErtvSukDIAMmvGXEHDjL6wr1EFuXnO7ewQAsasvjD+/XCE1AMD4M9YVUgEAjD+DXSE6ALHtiMZfS5TWR1eIDACMP7NdISIA1K6+MP78doVIAFC7+sL489IVukU5ADD+zHKFRkQoBQDGnxWukCwAMP4scYUkAYDxZ4srJAVAGYw/Y12h6PvIAMD4s8kVEgYAxp9drpAoADD+rHCFmkoCAOPPOldIBAAYfxa6QgIAEI2/rTD+dHSFHAOQfj+MP8tcoXkCAGSMh/FnpyvkDAAYf9a6Qk4AoBp/G1EhfV2h5WEBIBt/qaiPByqRdIXywvz92Mc/wPgzQoVruRsiGT+875MojP6ukGuC8WeIK+SO4oZ1Q0lMcYVcEIw/o1wh1YLxZ5wrpFIJ5f1QCeNcIXWC8WemK6RIMP78l2xWSIFg/Gkh2awQVTD+gu0K9Z2FiQ+wKwTjL9CuEIy/YLtCMP4C7QpFj4XxF2BXKOH3MP60Var7rtBCGH9BdoVg/AXaFYLxF2hXCMZfsF2hiTD+guwKwfgLtCsE4y/YrhCMv0C7QjD+Au0KwfgLtisE4y/QrhCMv0C7QokLYPwF2BWC8RdsVwjGn0Wu0Fbh8me+DuPPIsUuE9v1J/l/8jFplnkCqzKd+75n/wUTZp8yrrvRUfnThm3AZNmp+nUnNQ672KNnL0yUxfrz0oOJ1b/39V0/GlNkvXJW73m6+Mzf/cuGzcNrf2AU0fz43y4/+46tL++/5KkHr39j5/IJaOsBQRAEQRAEQWH1fyxodzwuFhjIAAAAAElFTkSuQmCC;" vertex="1" parent="BqjSLN71TK_Zf-umYn8F-17">
          <mxGeometry x="35" y="24.77272727272727" width="68" height="68" as="geometry" />
        </mxCell>
        <UserObject label="&lt;font style=&quot;font-size: 17px;&quot;&gt;Mosquitto Server&lt;/font&gt;" placeholders="1" name="Variable" id="BqjSLN71TK_Zf-umYn8F-10">
          <mxCell style="text;html=1;strokeColor=none;fillColor=none;align=center;verticalAlign=middle;whiteSpace=wrap;overflow=hidden;" vertex="1" parent="BqjSLN71TK_Zf-umYn8F-17">
            <mxGeometry width="143" height="24.77272727272727" as="geometry" />
          </mxCell>
        </UserObject>
        <mxCell id="BqjSLN71TK_Zf-umYn8F-34" value="" style="group" vertex="1" connectable="0" parent="1">
          <mxGeometry x="212" y="257" width="502" height="129" as="geometry" />
        </mxCell>
        <mxCell id="BqjSLN71TK_Zf-umYn8F-13" value="" style="shape=image;verticalLabelPosition=bottom;labelBackgroundColor=default;verticalAlign=top;aspect=fixed;imageAspect=0;image=data:image/png,iVBORw0KGgoAAAANSUhEUgAAAgAAAAIACAMAAADDpiTIAAAABGdBTUEAALGPC/xhBQAAAAFzUkdCAK7OHOkAAAL9UExURQAAAAAAAAAAAAAAAAAAAAAAAAAAAAAAAAAAAAAAAAAAAAAAAAAAAAAAAAAAAAAAAAAAAAAAAAAAAAAAAAAAAAAAAAAAAAAAAAAAAAAAAAAAAAAAAAAAAAAAAAAAAAAAAAAAAAAAAAAAAAAAAAAAAAAAAAAAAAAAAAAAAAAAAAAAAAAAAAAAAAAAAAAAAAAAAAAAAAAAAAAAAAAAAAAAAAAAAAAAAAAAAAAAAAAAAAAAAAAAAAAAAAAAAAAAAAAAAAAAAAAAAAAAAAAAAAAAAAAAAAAAAAAAAAAAAAAAAAAAAAAAAAAAAAAAAAAAAAAAAAAAAAAAAAAAAAAAAAAAAAAAAAAAAAAAAAAAAAAAAAAAAAAAAAAAAAAAAAAAAAAAAAAAAAAAAAAAAAAAAAAAAAAAAAAAAAAAAAAAAAAAAAAAAAAAAAAAAAAAAAAAAAAAAAAAAAAAAAAAAAAAAAAAAAAAAAAAAAAAAAAAAAAAAAAAAAAAAAAAAAAAAAAAAAAAAAAAAAAAAAAAAAAAAAAAAAAAAAAAAAAAAAAAAAAAAAAAAAAAAAAAAAAAAAAAAAAAAAAAAAAAAAAAAAAAAAAAAAAAAAAAAAAAAAAAAAAAAAAAAAAAAAAAAAAAAAAAAAAAAAAAAAAAAAAAAAAAAAAAAAAAAAAAAAAAAAAAAAAAAAAAAAAAAAAAAAAAAAAAAAAAAAAAAAAAAAAAAAAAAAAAAAAAAAAAAAAAAAAAAAAAAAAAAAAAAAAAAAAAAAAAAAAAAAAAAAAAAAAAAAAAAAAAAAAAAAAAAAAAAAAAAAAAAAAAAAAAAAAAAAAAAAAAAAAAAAAAAAAAAAAAAAAAAAAAAAAAAAAAAAAAAAAAAAAAAAAAAAAAAAAAAAAAAAAAAAAAAAAAAAAAAAAAAAAAAAAAAAAAAAAAAAAAAAAAAAAAAAAAAAAAAAAAAAAAAAAAAAAAAAAAAAAAAAAAAAAAAAAAAAAAAAAAAAAAAAAAAAAAAAAAAAAAAAAAAAAAAAAAAOafOxsAAAD+dFJOUwBupP5VWqqRTbEB/Rfn+wL8AwT49Q7u+uIHCKn59/YiCQXx7CHXBijdHAq9ym30ExAPoHjz8IFBZOXymic33LQpfjRUxxUe6wuMbxLDy0U/0tENMdOLX1aPuTMaDB2Y33A1ZS7WXLiAUS/Q7d6rXlJGnTbbER9A6XWXXah9t8jg78WSZmFZiIlySDmVoWcZgyROLa1Th0faGJ/GPdWmo3vCzyu6ooTNuzqG49QgdiM82UmssLLArkK8d0rBtUNqaTCOPrNLV8m/Y0S+JnPMO3/OtqWebJSnMsQsUI3YnEzkYljmOHxba5N5ipBPha+bKuqZ6IIUJRtxdBbhYJZ6yd5C0QAAHc9JREFUeNrtnXd8F0X+xke/IJBOElIoSSCQSCIpJBCKwSBFAhIQlR56ETya9CrSQaSciIhUFQWxoCieYgEB+9l7P/upZ7l+vzKv3/1O7wBJ8t2Zz+zuzOzz/JvXa3d2Pu/sd/fZZ+bDGARBEARBEARBEARBEHSq/lHyxZd/WDT8ouKYhDbR236z40+/G52FWQmIWrb7bkyIn6GEa1ZUAALrdc+C8yJ5tco7eKIh5shepfbPraH6P2nxsAmYKDtVWPQJd6JQ7iMRmC3rlFPUhjvWeQ9hwuxS/Sc+4kIaVIZJs0hPXsJF1fiGHMybJRqyI8QllPIhps4GZT1czCVVrzumz3h92ILLq/jupphBo5V+Aadp/4uYRHM1dH0TTlXka70wkYZqQApXocxR8IVM1OjnuCrt+jWm0zQV1Inh6pRc3gNTapJiR0VztUq5ArNqjkrP4+pVrzkm1gxF3RTJ3VBiEUwBAxQ/og13S2PuxfzqrooW3EWFWkdhinVW5STusmAKaKyM8WncfW0djZnWU++eyz1RzMB+mGz9lH0H90wpXTDfmqnf7xtzL/UKTAGdFDE5mnusxJ0wBbTR4Gu4D2pRgpnXQvkdI7kvCu2AKaCB8dfqSu6bkq6DKeCzJPLeStV1MGrgo1qeHeI+C6aAf0rdmUeq3ZWvtXtrSE7BXav/dxflKSJlCkrhi+p2IpV/4pRT3uP+ekMzwqEe3YBqeK70V0jl7/TNLx7f8n8k3AUSF6SiIp5q6D5S3juxcxUFK91NMQWwnNhL0fLeoUYtq36j7En4HQhthynglSZcTLr7963ewWt5DuG4i1vFojYeaMYSUt47qVX9mo6+mvJJ+akLUR63Fbt0NqX8cdPC3agz2iYQDr+kAUrkqj6l5b0XjXRwjuxcwhmil6NI7inqNpLxF/2MQ+f+c8rH5UHno1DuKGsVxazhyQOd354L3iCYAmkvwRRwQ1Npee9bxdZ3XtWb4jI9i3Kp1l33exziq08yBeavQ8lUipj3Tmsrs+HXlkYhiilQH2VTpi60vHe9dNlfnemEs94OU0CRsn9DW8+3Wv7UDccTPjnEXQtTQIEKy5Mp5e8whxbe3UChL3os6kcUMe8duXYIeQgn2lPePWAKkDRyK+nuv3uvkntQnTj5ISTsQf8BaRHz3pmjVH2dG0kyBVajklKK77mY9NlnrsLt/WKfIGw6UV38AKpRfWh578OK13BHvUowBTqMgCkgqMr5pM8+H7nw+F3xPiWBOhI1FVBqESnvnXCDK5v6ZS2gmALDZqCuTlWXZvwtdO3VK30hYViz56GyjnTPo7S893E3BzfgTsLQnoMpEF5DV5A2eije6fK3+ELKDrQJ+zJQ4ZqNv9+5kvdWqgmUVNq5j6DINc0tMe89y5NRxl6XRBjkJJgC1Rp/b7iZ91ZqClCyiR1egClQ9f9VJsn46+jpwpxZlHzaxDUo9xm6tzfp7t/V6/RF1k5CRimyI0yB07WFmPfu78NOLemU19XMySj6Kf9NczzLeyvVJsory4PoQvNvbablvQfd4p9pUU54bEVr2p/vpNfT8t6bfB39aMoOhVcfR/kz2tI2enjJ77xN7HWUXeoOBr01ba3htLy3Dhv25rcmPMAW3x0f4PKX5ZLKP+YxTa6jzzbCVVyyN6jlLzhKyns3m6PPZs1ZRYkEUyCYrWkj+hPz3nrtyDOT0qM68+PgbTh7FW2jh976manfUEyBwwEzBbp9p0neW6kpsJLwk5a8MkCmQHxPUmO/mGt1NdJHv00xNN4NSv1n0fLeD2rcsytiWabpL7Wuq/Ic0meflNp6X17+NJIpYH0XmoY7dcx7K9XNlBuc7a1piXnvY0akauPnECAPte5mb/mfJ+a9jclTVj5AesWx1BQYupKU9+7wlUl7r22k3Oq22mgKRIylrKjgofmGZWl7rKCYAu/1sK3+E94m3f0nzjLvkr+nRNwta02bPzeOUv4kM3dci+j/A+GiH7DHFKDmvYcZ+1xM2uEk8StLTIGbbyfd/bcavdveGoop0GKWBeXfsoOW955n+DtR/KpiiilgehearIeLKeVPPmrBTostJ1Eef8xuTUvNe2fD/+Rdjxh73ekHSeUfvonZoox9BA/M1Na0OcS8d2er9lfMfo4wF+1NNAVq0TZ6OGTbp3HalrcLTZuOdyzJe6tUwTBKF5rOJn0JKahD2uhh8QuWxiJKX6aYAiXGGH/LaHnv1vZ2YKW1pt1hxsSU0vLeT9m9ecYQUmvax/VvTbvlA1Le+4/trO++u/pXhPlZdET3Wxwt770kCBunkFrTxryn8/KBZ2l579zRLBjKfpqyp4C2b0iVk2h57xMsOKK0po0sz9LyxvZSGinv/W2wtkuZcS3hWWlRpX4XtJGW937gLyxoorSm/aRUtx+1W2l5780sgKK0pk3T6utAP2Le++4sFkwRWtPGfazNVUT0p7TV46EdQd47eWon6UfBJzS5hAnXkO7+E19kgZZ8a9pILbYa7UZs7PcF9s2Wbk0bU9f3sdO2yONxw/IZxNgAyd/QxCM+D/xJmvG3C93Vf5Zsa9rhvi6YGPImLe/9OQp/UiPlPqHm+vfpjJj3Tijvh6qf9msq15r2Yb/G+yEt7/0K2qedoSiZO2rjt3wZa/oxUvnPnYJyVyWZ1rQTfdhpeOh65L1d+l2VaE37guejXE5s7Nccha7h3ir8UaX4r96OcPRzpLv/mIdQ5DCmgOhGKh94OTpq3ntEU1Q4vCkgNscx3j1Qxy69iJT3vqkbyutEg8VMge1ejYua9x6J0jr9TxNqTRtzlzevqTfRPvu0i0BhBWZbpI3i1x4MKH4ErbHf14UoqtDD1hKBrwPN3N9TrmI/6e7/NFokCj5szRaa33kuj6dyEqn8lm15577uFX3YynV1OBnjSXnvJt9moKQiGvKq8DeByHUujuddYt47HSUVUWqRzFfWUa6NJ/sOUvkP3IeSCqnujXL/Zi4Np997pMZ+Hf4O40/s322Q5EznuTLRtF1teOjVliipiAovl19e4cZKocHIe3spWh9N9R+F84mN/ZbGoqYiKu1N+ndrpNr4e5yY9+6FkoqI6LNzvl/teKh570tRUhFlrWrGiWqs8imwZSNa3rs2Siqk1Tdyup5Xh2MRrbHfSuS9hZR+AVchZZsI1qXhuBB5byENXdFYSf25otvu8zQcp29ESYVe/ealcEVapQTHfch7eymi03KaFigYzwBi3nsmSirktHSMVFd//i15PEd2kQZwSQlKKqKmf2vDVeoocTwzlpDy3klnYaMHIVVcxtWqDmk4ohGkX+YRLN7f251Xv/s51wmAT2l570XIewuJ2EtHOQBCCeQzNRt5by+ftZUDQM17D0TeW0gTdnGuEwBTaRs93IG8t9ir3xsxXCcA7qI9jCDvLXi3fTyTc40AIOa909bnoKYi6nMJ5zoB0IWW966HvLeQKueHuE4AZNMa+7WoQEmF7ra0bgr8lTpqASgsp+W970be28u7bafj7CyVAEQ8Q2vstxZ5byH9mna3bTYniykFIPti0nh270VJRUTcVidy7ZD/P4o6AGKLSBmUzFHIe4uIuK0O7/3zkg9lAESRFvvFzUXeW0g30+L+J312VQC8SPrsd3g0SiqiIdtJr37JAxv851CKAJhM+Q4VPRYlFZHcSu+TGpd9ysHUALCTAGTCDT1QUxHVJb76nd4PRAkAlyPv7ZmyXyGVv3hnKlMOQB0CjsdRUiGj7SjJaAu9OuSXR1QAQFv5vPeCVNRUxGgjrfTmfHcVK+vpALSSxnE7jD8hraEl7GZfV1XAlgxAhawd1Rd5byFtoa30Tl4yo8rDUgHYIBlFuPJ15L1FlDWHttK72ogVEYCsl+WMv2nIewtpMy1hl7Kp2iMTASiXGk9X5L2FRFzpXePaShoAJTI/S9HPIO8tIuJK7zBrK0kApB6g+dCQg1e/sXeS/v0nzqr5+CQAxouP59ZbUFMREVd6J7UK96xNAWCm8BegX72Lkoooahrp1S/my/Af2SkATBPNe7dF3ltE8T1pK70fdPKRnQDA84IWUD009hMScaV3ygBHZyEA8KrQeLY9i5KK6B7a4qpEp3dbeQAqRb5LNZuDvLeIiCu9Q4cc323lAVghHECFnIq40lukjao0AKnOPwIcKEVJRXQpLV4v9plFGoApAm8je3D/d678N+Io5Y/rKPaZRRqAgyKjenkCCuvw1Y+40nvXhYInlAWggZg/nfAwvv46UR/aq99Hy4XPKAvAJuEvgGUobzhVTiLF/aXy1bIAvCY8vLyz8BGwRhH31eBcamMFWQBk3lNy70GVq1eXqzlRzEMAKqVG2GwU6lyNynI5NwmAE7LLQBAErkrEld4+ALBSdpCZWAd4hqgrvf0A4AH5YV7/Z5T8NN18O+fGATCdskDhChT9pIbsULbJl4cAxJJ+skJrC1D4n5T6VR7nBgKwhTjU9mj+/S8RV3r7B8AR6lhDw4ai/MSV3n4C8Bh9tJ1uDnj5Cwcmc2MB+FDBcCMHZgS4/NSV3j4D0EXJgN+/KrD1Lz2Pc5MBqK1mxDF7sgJZ/i23ubK/s3kABDMpQl3pbRUAvPGC+IDVn7jS2zYAgpYUUdTT2yYAeNoLgUmKKOvpbRUAnD8YjKQIdaW3vQAEIykyuCtpjpK+sBgAzsd1t7z83Wg9veOGdWNWA8CvnGdz+akrvQ+/9c+D2A0A53+wd+cw6krv2v86iu0A8NlTLH31u540LU32/Rz3tx4AzrdbmBSh9vQ+2UfRIADGye5ucKd1SZEBH5HKP+axk4cyCICz2QnJNY6hjv1sKv8E2krvxSNOXVdtFABsnaznebU9m0jnz6Wt9P7FhrpmAcDYsg6SSZGvM+x49Xv8StpHkl+u9DYNANZddrnTjTYkRYg9vaPHnvGFxDgAWESrRMmkyA2mJ0XcWOltHgCMbXhbcgb6Gp0UyVhAi/sfq7KTlokAsPoPJ0gmRTqbmxQh9vQ+UM27sJEAMPb9bsl56F1mZvnLqD29q9tSy1AAWNPxkgH4tDkG9pOm9vRuXf0XEVMBYGzwtqAkRWKXknoo80Vraji4uQCwhislHZHix42qP3Gld5heKgYD8M+pkV1QblBShLjSO6E8TC8VowFgPZZIJmLaTDaj/NSe3uGbKJsNAGMVsttgHVxnQP3V9vS2EgDWYJrkLfKHTbqXP3shqfwdipw0UTYeAMY2tpecofn5Ope/sJzW2O02Z3unWQAA69VIcpLaP6Lvq98yYk/vvQ5PZAMAjA2Q3BIt9JqmSRHiSu/MUY7dLjsAYFHHZJMiD2lY/i2taT29vy50fi5LAGCs/2JJm3RJhmblp670HiTURtMaAFj3O2STInu1qj9xpfdwwZcbewBgEU9Ifi+PuSFVm/K72dPbdgAY2yAbl902WI/yk3t6i2+bbRUALHaV5HoJLZIiEZPbk/79J94rcVK7AGDs+96Ss/db3zuQE3t6Z34h1UHJNgBY/ALJpEiTu31NihBXesdc20vuvNYBwNilEyUn8W3/kiLUld5Pj5Y9s4UAsNQVkkmRvFY+bSxUsZ9U/pQu8qe2EQDG1hyQNVH8SIoQV3o77ukdIABYTh3ZpMjHnr/6raf19J7UnHR6SwFgrEQ2KVLP26QIsad3X+qqV2sBYA06SiZFMmt5V37iSu+kVuTmufYCwNiHuidFqCu9h3Wjj8FmAFivNyWnNtqLpEj867SV3gcuVTEKqwFgrJZsUqR1odv1J6705vwcBgAcGGyHZJMij7lafuJKbwDgXJMlkyKha3NcK39GZwWN3QCAQ627VXKGp7/oUv27KGnsBgAcf2a9TnJ5Tdzv3UiKvJPLOQDwEgDGmu/SJikyQ0lPbwAgqNgRaXKznNxWaVKEutIbAEirTDZpf/todfVX1tMbAEj4Ljsl83bKkiIKe3oDABlJJ0WueV7BTKcW5XEOAPwEgGXtk3wAU5AUUdvTGwBI6tMxkrOdS0uKZN/BOQDQAADWcKBsUqSd/EmJK70BgEIAGOsju7HQA5JJEepKbwCgFgDW70fZpMhymdO50tMbAJC0WbbXYiPhpAhxpTcAcAUANuM2yUmfXVfoPK719AYAVF3xgwdJkeMtOAcAegLAomTD+Fc/6/AM6Y+S6ps4CAC4CQBjnydJ3gTmDnXyqLmSuNJ7Zi0A4C4AbJ3sv+j0sOuwySu9ZzEGANwGgLGlki2o4sprTooQV3r/FPcHAO4DwLoflk2KXFj9Qak9vef+tNIbAHgAAIvtKduCan01PTioK70f/Hf+AAB4AQBjGxbJJkWqbEE1lbjSe8B/jgQAvAGA1S+SbEGVUHTGyjziSu+0U1d6AwCPAGDsiGwLqmtO9wT++mUCpfyhQzNPPRoA8AwAlvWtbFT3t6v+va9MQZdJpPKfsdIbAHgHAGOl26QLd9HTb3639oIDxI8+Sa//8vcEAHgJAGtY7tpnOyevflWs9AYAngLA2JPTfav/rqpcBQDgMQCsx9yQL+X/aGyVwwEAXgPwz5f4q70vf8K+HgwAaAIAm7HW6/rXS69uLADABwAY+6a9l+Ufs7n6kQAAXwBg3SZ5Vv7FLzRlAEA3ABgbkOnNq9+0qBqHAQD8AoCtu8CD+ncdGWYUAMA3ABhb1sHl8kf3D7vaEAD4CADr/htXX/1WOuhXCAD8BIBFtEp0rf7HzncyAgDgKwCMbXjbnfIfcLgNKQDwGQBW/+EE9eVvdndTBgDMAICx73crLn/k2iGOTw4A/AeANR2frLL+i9YInBsAaAAAY29dpu7V7xmhjWYAgBYAsIYr45SUP3lgA7ETAwA9AGBsr4qkyLhs0dMCAF0AYD2WUONinTaKnxUAaAMAYxWkpEiHr2Q2nQYAGgHAGkyTjouFtreUOiUA0AkAxjZKJkV275U8IQDQCwDWq5FE+TNHSW80DAA0A4CxAX8UffU7Sug9BQC0A4D1Wy+y4XPo0C2UkwEA/QBgLH+F06hI6OAa2qkAgI4AMFb4Nyf7fhfPvYV6IgCgJwCMRdx8LMxQU55R0HcSAOgKAGN1wwy1noqTAAAAAAAAgJEAzAlz0PcAgN0A7Atz0D0AwG4AWoc56GcAwG4A+oY5aE8AYDUABeG23BoAAKwGYFm4g94LAKwG4LlwB20OAGwGYE247ExiLACwGICIsDeA2xkAsBiAJ8J+KVsLACwGYHD4yMQTAMBeAJo7iE7+GgBYC8ClDuqfFAsAbAXgv53kpbYzAGAnAOkLHYXlfgcArASgx/omjurfuBAA2AhArRSHadlDDADYB8A7uY7T8nUBgHUAzFjivOVOdFMAYBkAsaOiBZbLfMYAgF0AlJ4nUH6emA8ArAJgXWuxzTPqMABgEQDxIwT75OZFAQCLAJjaggtqPQMA1gCQXk+0/PyTQgBgCwAZ45sI179aFxgAGAfAieHi5eeDGACwA4CyXIny88XdAYAVABTUkeu1vZwBAAsAiG0XLVV+Po0BAAsAEDP+TtFTDQGA+QCs+0B219z2YTslAADtARA2/k6qzREGAEwHoKKFbPl52pMMABgOwF1/kC4/T9zMAIDZAGSMT5Ovf7NZDACYDUCt/5IvP/9kMAMARgOQTeqj+nIlAwAmA1BwlNQ6bXsOAwAGAxDRP5pS/rx2jocCAHQE4KrelPLzwxsYADAaAFK7rKR2Ip0SAYCOABAU90E3oaEAALsAWDRScCgAwCYAoj+OYAAgsAAI98kFAFYBMChbZigAwBIAhm+SGwoAsAKAxM4NGQAILAChSc2lhwIAzAdgzEOEoQAA0wFIOqs+AwCBBSBuWhRtKADAaACEjb8ztDzcd2UAoC8A0ZMjyEOZEuYcjwIAXQGQMv7O0CNhztIVAGgKwLhsJUMpCRctjQAAOgJw7hRFs3pLuDOdDwD0AyBvQUNVs9or3LlWAQDlAMQSjb9GzRVOa7gtR54CAKoB2Hseqf59H1I6rfvDne9eAKAUgKibaIk/mvF3ps4Jd8ZbAYBCALL+3oZS/riOUaqndXzYky4HAMoAWN2CdPe/ZqT6aT0e9qwXdQcAagCQ2OPvNONvnhvv5L3C/yLtLwAACgDIaNuEUn41xl8V2ubgk0M3AEAG4EQK6d9/oWuGzEAHZ79xMACgAVD2NC3x94178/qYkwE0fikVAMgDINLcw13jrwo1dfZe8v5gACAJgPQefz8bf/Nnujux05yNI6ZtPACQAaCUZvyNKXF7Yvs4jp9kAwBhAHQz/qpQxLmOf4seBwCCv6/aGX9VaZVACqElABDQVJrx13WkNzNb2Mz5mK5cDgCc6q77acZff8/COO+JjOvNAgDgRDl/SqOUv/HlDbyb2n8Uiwyt/bMAwMGBhpP+/Qd5+8C9R+zF9NoMABDG+MsllV92qa/8U8AfBd9NRwKAGlRAM/4SP/Pedp0sOEY/XCFTAIhdRjP+Gs304/56WHScvZ8HAFVqDc34u6SE+aK/FIuONK9VBAAw0firRkslnlRbAoDTRWju8S/jb1oU80+HxAecuRwAqDT+3vLTaWcNZEY/vxcAMM/4q0bZzSSG3b4CABhn/FWnEpnQoneukNYAdDmX9O8/KJvpoC5xMoN/f2TgATDN+KtWy6QISH4pPtAAyHb19dH4q1a15S6ld1lwATDT+KtW7+bJ5VY9cIX0BKCU1txjTB+mmS5sL/kY0z2IAER9YKrxV70qu8pdjOtZIf0AiB/RjFL+uB//zHRU05WSVLvsCmkHQAXR+LuQ6arNV8td0p0VAQKA0tWXu7XUV5V6fCl3E3DVFdIKgJy25ht/NWrWr+Su7MarAgEA0fgbl820V4PWctfmXlZIHwDKSF191e3x57KuuEju+txyhXQBgGr8dW7IDFHUBZKX6I4rpAcAlhl/YTSqWO4yBw2xFYDbzUz8Sav5xZKuUG1LASApqVV9ZprqFyXo4gqZDoBHS32V69LL5K63/WoAYIjxF0YNL9fDFTIaAP8Tf+a7QgYDkHy0ATNaWrhC5gJggvFngCtkKgCmGH8uuUJpPSMCDYBBxl84tZN1hboHFwDDjD+XXKGk2kEFoG8Js0r+ukLGAWCi8aezK2QYAKYaf665QjnBAsBc4y+c+vjlCpkEgNnGn6aukDkANC5vwKyWP66QMQDYYPzp6AoZAoAlxp9brtCt3e0GwCLjzy1XaKzOAMSugPHnviuUry0AnxK7+pawQMljV8h1AKJuC8H409gVchmArFW0pb52Gn9uuULTr9INgKnWLvXV1BVaH68TAOnXw/jz2hX6bZk2AOTQuvpab/xp4gq5BkAtWlffceezoMsbV8glAN6h7fHXaQqDvHGFXAEgOEt9NXWFGuX7CUDsqCAt9dXUFbrPPwBKYfzp4ArN7eEPAFGtaXv8Bc/489kVUgsAjD+dXKE98V4DAOPPPFdIIQBU429eBErtvSukDIAMmvGXEHDjL6wr1EFuXnO7ewQAsasvjD+/XCE1AMD4M9YVUgEAjD+DXSE6ALHtiMZfS5TWR1eIDACMP7NdISIA1K6+MP78doVIAFC7+sL489IVukU5ADD+zHKFRkQoBQDGnxWukCwAMP4scYUkAYDxZ4srJAVAGYw/Y12h6PvIAMD4s8kVEgYAxp9drpAoADD+rHCFmkoCAOPPOldIBAAYfxa6QgIAEI2/rTD+dHSFHAOQfj+MP8tcoXkCAGSMh/FnpyvkDAAYf9a6Qk4AoBp/G1EhfV2h5WEBIBt/qaiPByqRdIXywvz92Mc/wPgzQoVruRsiGT+875MojP6ukGuC8WeIK+SO4oZ1Q0lMcYVcEIw/o1wh1YLxZ5wrpFIJ5f1QCeNcIXWC8WemK6RIMP78l2xWSIFg/Gkh2awQVTD+gu0K9Z2FiQ+wKwTjL9CuEIy/YLtCMP4C7QpFj4XxF2BXKOH3MP60Var7rtBCGH9BdoVg/AXaFYLxF2hXCMZfsF2hiTD+guwKwfgLtCsE4y/YrhCMv0C7QjD+Au0KwfgLtisE4y/QrhCMv0C7QokLYPwF2BWC8RdsVwjGn0Wu0Fbh8me+DuPPIsUuE9v1J/l/8jFplnkCqzKd+75n/wUTZp8yrrvRUfnThm3AZNmp+nUnNQ672KNnL0yUxfrz0oOJ1b/39V0/GlNkvXJW73m6+Mzf/cuGzcNrf2AU0fz43y4/+46tL++/5KkHr39j5/IJaOsBQRAEQRAEQWH1fyxodzwuFhjIAAAAAElFTkSuQmCC;" vertex="1" parent="BqjSLN71TK_Zf-umYn8F-34">
          <mxGeometry x="35" y="20" width="68" height="68" as="geometry" />
        </mxCell>
        <UserObject label="&lt;font style=&quot;font-size: 17px;&quot;&gt;MAPE-K Service&lt;/font&gt;" placeholders="1" name="Variable" id="BqjSLN71TK_Zf-umYn8F-14">
          <mxCell style="text;html=1;strokeColor=none;fillColor=none;align=center;verticalAlign=middle;whiteSpace=wrap;overflow=hidden;" vertex="1" parent="BqjSLN71TK_Zf-umYn8F-34">
            <mxGeometry width="143" height="20" as="geometry" />
          </mxCell>
        </UserObject>
        <mxCell id="BqjSLN71TK_Zf-umYn8F-21" value="&lt;div&gt;&lt;span style=&quot;white-space: pre;&quot;&gt;&#x9;&lt;/span&gt;Clases POO&lt;/div&gt;&lt;ul&gt;&lt;li&gt;monitor.py: monitoreo sensor.&lt;/li&gt;&lt;li&gt;analisis.py: anÃ¡lisis de datos en tiempo real generado por el sensor.&lt;/li&gt;&lt;li&gt;planeacion.py: planeaciÃ³n para ejecutar una acciÃ³n.&lt;/li&gt;&lt;li&gt;executor.py: ejecuta la acciÃ³n como alertar por un bot o generar la recomendaciÃ³n.&amp;nbsp;&lt;/li&gt;&lt;/ul&gt;" style="text;strokeColor=none;fillColor=none;html=1;whiteSpace=wrap;verticalAlign=middle;overflow=hidden;align=left;" vertex="1" parent="BqjSLN71TK_Zf-umYn8F-34">
          <mxGeometry x="79" y="20" width="423" height="109" as="geometry" />
        </mxCell>
        <mxCell id="BqjSLN71TK_Zf-umYn8F-27" value="&lt;ul&gt;&lt;li&gt;simulador de sensor por mqtt humedad/temperatura&lt;/li&gt;&lt;/ul&gt;" style="text;strokeColor=none;fillColor=none;html=1;whiteSpace=wrap;verticalAlign=middle;overflow=hidden;align=left;" vertex="1" parent="BqjSLN71TK_Zf-umYn8F-34">
          <mxGeometry x="-146" y="57" width="188.5" height="51" as="geometry" />
        </mxCell>
        <mxCell id="BqjSLN71TK_Zf-umYn8F-33" value="" style="group" vertex="1" connectable="0" parent="1">
          <mxGeometry x="12" y="247" width="246.5" height="100" as="geometry" />
        </mxCell>
        <mxCell id="BqjSLN71TK_Zf-umYn8F-11" value="" style="shape=image;verticalLabelPosition=bottom;labelBackgroundColor=default;verticalAlign=top;aspect=fixed;imageAspect=0;image=data:image/png,iVBORw0KGgoAAAANSUhEUgAAAgAAAAIACAMAAADDpiTIAAAABGdBTUEAALGPC/xhBQAAAAFzUkdCAK7OHOkAAAL9UExURQAAAAAAAAAAAAAAAAAAAAAAAAAAAAAAAAAAAAAAAAAAAAAAAAAAAAAAAAAAAAAAAAAAAAAAAAAAAAAAAAAAAAAAAAAAAAAAAAAAAAAAAAAAAAAAAAAAAAAAAAAAAAAAAAAAAAAAAAAAAAAAAAAAAAAAAAAAAAAAAAAAAAAAAAAAAAAAAAAAAAAAAAAAAAAAAAAAAAAAAAAAAAAAAAAAAAAAAAAAAAAAAAAAAAAAAAAAAAAAAAAAAAAAAAAAAAAAAAAAAAAAAAAAAAAAAAAAAAAAAAAAAAAAAAAAAAAAAAAAAAAAAAAAAAAAAAAAAAAAAAAAAAAAAAAAAAAAAAAAAAAAAAAAAAAAAAAAAAAAAAAAAAAAAAAAAAAAAAAAAAAAAAAAAAAAAAAAAAAAAAAAAAAAAAAAAAAAAAAAAAAAAAAAAAAAAAAAAAAAAAAAAAAAAAAAAAAAAAAAAAAAAAAAAAAAAAAAAAAAAAAAAAAAAAAAAAAAAAAAAAAAAAAAAAAAAAAAAAAAAAAAAAAAAAAAAAAAAAAAAAAAAAAAAAAAAAAAAAAAAAAAAAAAAAAAAAAAAAAAAAAAAAAAAAAAAAAAAAAAAAAAAAAAAAAAAAAAAAAAAAAAAAAAAAAAAAAAAAAAAAAAAAAAAAAAAAAAAAAAAAAAAAAAAAAAAAAAAAAAAAAAAAAAAAAAAAAAAAAAAAAAAAAAAAAAAAAAAAAAAAAAAAAAAAAAAAAAAAAAAAAAAAAAAAAAAAAAAAAAAAAAAAAAAAAAAAAAAAAAAAAAAAAAAAAAAAAAAAAAAAAAAAAAAAAAAAAAAAAAAAAAAAAAAAAAAAAAAAAAAAAAAAAAAAAAAAAAAAAAAAAAAAAAAAAAAAAAAAAAAAAAAAAAAAAAAAAAAAAAAAAAAAAAAAAAAAAAAAAAAAAAAAAAAAAAAAAAAAAAAAAAAAAAAAAAAAAAAAAAAAAAAAAAAAAAAAAAAAAAAAAAAAAAAAAAAAAAAAAAAAAAAAAAAAAAAAAAAAAAAOafOxsAAAD+dFJOUwBupP5VWqqRTbEB/Rfn+wL8AwT49Q7u+uIHCKn59/YiCQXx7CHXBijdHAq9ym30ExAPoHjz8IFBZOXymic33LQpfjRUxxUe6wuMbxLDy0U/0tENMdOLX1aPuTMaDB2Y33A1ZS7WXLiAUS/Q7d6rXlJGnTbbER9A6XWXXah9t8jg78WSZmFZiIlySDmVoWcZgyROLa1Th0faGJ/GPdWmo3vCzyu6ooTNuzqG49QgdiM82UmssLLArkK8d0rBtUNqaTCOPrNLV8m/Y0S+JnPMO3/OtqWebJSnMsQsUI3YnEzkYljmOHxba5N5ipBPha+bKuqZ6IIUJRtxdBbhYJZ6yd5C0QAAHc9JREFUeNrtnXd8F0X+xke/IJBOElIoSSCQSCIpJBCKwSBFAhIQlR56ETya9CrSQaSciIhUFQWxoCieYgEB+9l7P/upZ7l+vzKv3/1O7wBJ8t2Zz+zuzOzz/JvXa3d2Pu/sd/fZZ+bDGARBEARBEARBEARBEHSq/lHyxZd/WDT8ouKYhDbR236z40+/G52FWQmIWrb7bkyIn6GEa1ZUAALrdc+C8yJ5tco7eKIh5shepfbPraH6P2nxsAmYKDtVWPQJd6JQ7iMRmC3rlFPUhjvWeQ9hwuxS/Sc+4kIaVIZJs0hPXsJF1fiGHMybJRqyI8QllPIhps4GZT1czCVVrzumz3h92ILLq/jupphBo5V+Aadp/4uYRHM1dH0TTlXka70wkYZqQApXocxR8IVM1OjnuCrt+jWm0zQV1Inh6pRc3gNTapJiR0VztUq5ArNqjkrP4+pVrzkm1gxF3RTJ3VBiEUwBAxQ/og13S2PuxfzqrooW3EWFWkdhinVW5STusmAKaKyM8WncfW0djZnWU++eyz1RzMB+mGz9lH0H90wpXTDfmqnf7xtzL/UKTAGdFDE5mnusxJ0wBbTR4Gu4D2pRgpnXQvkdI7kvCu2AKaCB8dfqSu6bkq6DKeCzJPLeStV1MGrgo1qeHeI+C6aAf0rdmUeq3ZWvtXtrSE7BXav/dxflKSJlCkrhi+p2IpV/4pRT3uP+ekMzwqEe3YBqeK70V0jl7/TNLx7f8n8k3AUSF6SiIp5q6D5S3juxcxUFK91NMQWwnNhL0fLeoUYtq36j7En4HQhthynglSZcTLr7963ewWt5DuG4i1vFojYeaMYSUt47qVX9mo6+mvJJ+akLUR63Fbt0NqX8cdPC3agz2iYQDr+kAUrkqj6l5b0XjXRwjuxcwhmil6NI7inqNpLxF/2MQ+f+c8rH5UHno1DuKGsVxazhyQOd354L3iCYAmkvwRRwQ1Npee9bxdZ3XtWb4jI9i3Kp1l33exziq08yBeavQ8lUipj3Tmsrs+HXlkYhiilQH2VTpi60vHe9dNlfnemEs94OU0CRsn9DW8+3Wv7UDccTPjnEXQtTQIEKy5Mp5e8whxbe3UChL3os6kcUMe8duXYIeQgn2lPePWAKkDRyK+nuv3uvkntQnTj5ISTsQf8BaRHz3pmjVH2dG0kyBVajklKK77mY9NlnrsLt/WKfIGw6UV38AKpRfWh578OK13BHvUowBTqMgCkgqMr5pM8+H7nw+F3xPiWBOhI1FVBqESnvnXCDK5v6ZS2gmALDZqCuTlWXZvwtdO3VK30hYViz56GyjnTPo7S893E3BzfgTsLQnoMpEF5DV5A2eije6fK3+ELKDrQJ+zJQ4ZqNv9+5kvdWqgmUVNq5j6DINc0tMe89y5NRxl6XRBjkJJgC1Rp/b7iZ91ZqClCyiR1egClQ9f9VJsn46+jpwpxZlHzaxDUo9xm6tzfp7t/V6/RF1k5CRimyI0yB07WFmPfu78NOLemU19XMySj6Kf9NczzLeyvVJsory4PoQvNvbablvQfd4p9pUU54bEVr2p/vpNfT8t6bfB39aMoOhVcfR/kz2tI2enjJ77xN7HWUXeoOBr01ba3htLy3Dhv25rcmPMAW3x0f4PKX5ZLKP+YxTa6jzzbCVVyyN6jlLzhKyns3m6PPZs1ZRYkEUyCYrWkj+hPz3nrtyDOT0qM68+PgbTh7FW2jh976manfUEyBwwEzBbp9p0neW6kpsJLwk5a8MkCmQHxPUmO/mGt1NdJHv00xNN4NSv1n0fLeD2rcsytiWabpL7Wuq/Ic0meflNp6X17+NJIpYH0XmoY7dcx7K9XNlBuc7a1piXnvY0akauPnECAPte5mb/mfJ+a9jclTVj5AesWx1BQYupKU9+7wlUl7r22k3Oq22mgKRIylrKjgofmGZWl7rKCYAu/1sK3+E94m3f0nzjLvkr+nRNwta02bPzeOUv4kM3dci+j/A+GiH7DHFKDmvYcZ+1xM2uEk8StLTIGbbyfd/bcavdveGoop0GKWBeXfsoOW955n+DtR/KpiiilgehearIeLKeVPPmrBTostJ1Eef8xuTUvNe2fD/+Rdjxh73ekHSeUfvonZoox9BA/M1Na0OcS8d2er9lfMfo4wF+1NNAVq0TZ6OGTbp3HalrcLTZuOdyzJe6tUwTBKF5rOJn0JKahD2uhh8QuWxiJKX6aYAiXGGH/LaHnv1vZ2YKW1pt1hxsSU0vLeT9m9ecYQUmvax/VvTbvlA1Le+4/trO++u/pXhPlZdET3Wxwt770kCBunkFrTxryn8/KBZ2l579zRLBjKfpqyp4C2b0iVk2h57xMsOKK0po0sz9LyxvZSGinv/W2wtkuZcS3hWWlRpX4XtJGW937gLyxoorSm/aRUtx+1W2l5780sgKK0pk3T6utAP2Le++4sFkwRWtPGfazNVUT0p7TV46EdQd47eWon6UfBJzS5hAnXkO7+E19kgZZ8a9pILbYa7UZs7PcF9s2Wbk0bU9f3sdO2yONxw/IZxNgAyd/QxCM+D/xJmvG3C93Vf5Zsa9rhvi6YGPImLe/9OQp/UiPlPqHm+vfpjJj3Tijvh6qf9msq15r2Yb/G+yEt7/0K2qedoSiZO2rjt3wZa/oxUvnPnYJyVyWZ1rQTfdhpeOh65L1d+l2VaE37guejXE5s7Nccha7h3ir8UaX4r96OcPRzpLv/mIdQ5DCmgOhGKh94OTpq3ntEU1Q4vCkgNscx3j1Qxy69iJT3vqkbyutEg8VMge1ejYua9x6J0jr9TxNqTRtzlzevqTfRPvu0i0BhBWZbpI3i1x4MKH4ErbHf14UoqtDD1hKBrwPN3N9TrmI/6e7/NFokCj5szRaa33kuj6dyEqn8lm15577uFX3YynV1OBnjSXnvJt9moKQiGvKq8DeByHUujuddYt47HSUVUWqRzFfWUa6NJ/sOUvkP3IeSCqnujXL/Zi4Np997pMZ+Hf4O40/s322Q5EznuTLRtF1teOjVliipiAovl19e4cZKocHIe3spWh9N9R+F84mN/ZbGoqYiKu1N+ndrpNr4e5yY9+6FkoqI6LNzvl/teKh570tRUhFlrWrGiWqs8imwZSNa3rs2Siqk1Tdyup5Xh2MRrbHfSuS9hZR+AVchZZsI1qXhuBB5byENXdFYSf25otvu8zQcp29ESYVe/ealcEVapQTHfch7eymi03KaFigYzwBi3nsmSirktHSMVFd//i15PEd2kQZwSQlKKqKmf2vDVeoocTwzlpDy3klnYaMHIVVcxtWqDmk4ohGkX+YRLN7f251Xv/s51wmAT2l570XIewuJ2EtHOQBCCeQzNRt5by+ftZUDQM17D0TeW0gTdnGuEwBTaRs93IG8t9ir3xsxXCcA7qI9jCDvLXi3fTyTc40AIOa909bnoKYi6nMJ5zoB0IWW966HvLeQKueHuE4AZNMa+7WoQEmF7ra0bgr8lTpqASgsp+W970be28u7bafj7CyVAEQ8Q2vstxZ5byH9mna3bTYniykFIPti0nh270VJRUTcVidy7ZD/P4o6AGKLSBmUzFHIe4uIuK0O7/3zkg9lAESRFvvFzUXeW0g30+L+J312VQC8SPrsd3g0SiqiIdtJr37JAxv851CKAJhM+Q4VPRYlFZHcSu+TGpd9ysHUALCTAGTCDT1QUxHVJb76nd4PRAkAlyPv7ZmyXyGVv3hnKlMOQB0CjsdRUiGj7SjJaAu9OuSXR1QAQFv5vPeCVNRUxGgjrfTmfHcVK+vpALSSxnE7jD8hraEl7GZfV1XAlgxAhawd1Rd5byFtoa30Tl4yo8rDUgHYIBlFuPJ15L1FlDWHttK72ogVEYCsl+WMv2nIewtpMy1hl7Kp2iMTASiXGk9X5L2FRFzpXePaShoAJTI/S9HPIO8tIuJK7zBrK0kApB6g+dCQg1e/sXeS/v0nzqr5+CQAxouP59ZbUFMREVd6J7UK96xNAWCm8BegX72Lkoooahrp1S/my/Af2SkATBPNe7dF3ltE8T1pK70fdPKRnQDA84IWUD009hMScaV3ygBHZyEA8KrQeLY9i5KK6B7a4qpEp3dbeQAqRb5LNZuDvLeIiCu9Q4cc323lAVghHECFnIq40lukjao0AKnOPwIcKEVJRXQpLV4v9plFGoApAm8je3D/d678N+Io5Y/rKPaZRRqAgyKjenkCCuvw1Y+40nvXhYInlAWggZg/nfAwvv46UR/aq99Hy4XPKAvAJuEvgGUobzhVTiLF/aXy1bIAvCY8vLyz8BGwRhH31eBcamMFWQBk3lNy70GVq1eXqzlRzEMAKqVG2GwU6lyNynI5NwmAE7LLQBAErkrEld4+ALBSdpCZWAd4hqgrvf0A4AH5YV7/Z5T8NN18O+fGATCdskDhChT9pIbsULbJl4cAxJJ+skJrC1D4n5T6VR7nBgKwhTjU9mj+/S8RV3r7B8AR6lhDw4ai/MSV3n4C8Bh9tJ1uDnj5Cwcmc2MB+FDBcCMHZgS4/NSV3j4D0EXJgN+/KrD1Lz2Pc5MBqK1mxDF7sgJZ/i23ubK/s3kABDMpQl3pbRUAvPGC+IDVn7jS2zYAgpYUUdTT2yYAeNoLgUmKKOvpbRUAnD8YjKQIdaW3vQAEIykyuCtpjpK+sBgAzsd1t7z83Wg9veOGdWNWA8CvnGdz+akrvQ+/9c+D2A0A53+wd+cw6krv2v86iu0A8NlTLH31u540LU32/Rz3tx4AzrdbmBSh9vQ+2UfRIADGye5ucKd1SZEBH5HKP+axk4cyCICz2QnJNY6hjv1sKv8E2krvxSNOXVdtFABsnaznebU9m0jnz6Wt9P7FhrpmAcDYsg6SSZGvM+x49Xv8StpHkl+u9DYNANZddrnTjTYkRYg9vaPHnvGFxDgAWESrRMmkyA2mJ0XcWOltHgCMbXhbcgb6Gp0UyVhAi/sfq7KTlokAsPoPJ0gmRTqbmxQh9vQ+UM27sJEAMPb9bsl56F1mZvnLqD29q9tSy1AAWNPxkgH4tDkG9pOm9vRuXf0XEVMBYGzwtqAkRWKXknoo80Vraji4uQCwhislHZHix42qP3Gld5heKgYD8M+pkV1QblBShLjSO6E8TC8VowFgPZZIJmLaTDaj/NSe3uGbKJsNAGMVsttgHVxnQP3V9vS2EgDWYJrkLfKHTbqXP3shqfwdipw0UTYeAMY2tpecofn5Ope/sJzW2O02Z3unWQAA69VIcpLaP6Lvq98yYk/vvQ5PZAMAjA2Q3BIt9JqmSRHiSu/MUY7dLjsAYFHHZJMiD2lY/i2taT29vy50fi5LAGCs/2JJm3RJhmblp670HiTURtMaAFj3O2STInu1qj9xpfdwwZcbewBgEU9Ifi+PuSFVm/K72dPbdgAY2yAbl902WI/yk3t6i2+bbRUALHaV5HoJLZIiEZPbk/79J94rcVK7AGDs+96Ss/db3zuQE3t6Z34h1UHJNgBY/ALJpEiTu31NihBXesdc20vuvNYBwNilEyUn8W3/kiLUld5Pj5Y9s4UAsNQVkkmRvFY+bSxUsZ9U/pQu8qe2EQDG1hyQNVH8SIoQV3o77ukdIABYTh3ZpMjHnr/6raf19J7UnHR6SwFgrEQ2KVLP26QIsad3X+qqV2sBYA06SiZFMmt5V37iSu+kVuTmufYCwNiHuidFqCu9h3Wjj8FmAFivNyWnNtqLpEj867SV3gcuVTEKqwFgrJZsUqR1odv1J6705vwcBgAcGGyHZJMij7lafuJKbwDgXJMlkyKha3NcK39GZwWN3QCAQ627VXKGp7/oUv27KGnsBgAcf2a9TnJ5Tdzv3UiKvJPLOQDwEgDGmu/SJikyQ0lPbwAgqNgRaXKznNxWaVKEutIbAEirTDZpf/todfVX1tMbAEj4Ljsl83bKkiIKe3oDABlJJ0WueV7BTKcW5XEOAPwEgGXtk3wAU5AUUdvTGwBI6tMxkrOdS0uKZN/BOQDQAADWcKBsUqSd/EmJK70BgEIAGOsju7HQA5JJEepKbwCgFgDW70fZpMhymdO50tMbAJC0WbbXYiPhpAhxpTcAcAUANuM2yUmfXVfoPK719AYAVF3xgwdJkeMtOAcAegLAomTD+Fc/6/AM6Y+S6ps4CAC4CQBjnydJ3gTmDnXyqLmSuNJ7Zi0A4C4AbJ3sv+j0sOuwySu9ZzEGANwGgLGlki2o4sprTooQV3r/FPcHAO4DwLoflk2KXFj9Qak9vef+tNIbAHgAAIvtKduCan01PTioK70f/Hf+AAB4AQBjGxbJJkWqbEE1lbjSe8B/jgQAvAGA1S+SbEGVUHTGyjziSu+0U1d6AwCPAGDsiGwLqmtO9wT++mUCpfyhQzNPPRoA8AwAlvWtbFT3t6v+va9MQZdJpPKfsdIbAHgHAGOl26QLd9HTb3639oIDxI8+Sa//8vcEAHgJAGtY7tpnOyevflWs9AYAngLA2JPTfav/rqpcBQDgMQCsx9yQL+X/aGyVwwEAXgPwz5f4q70vf8K+HgwAaAIAm7HW6/rXS69uLADABwAY+6a9l+Ufs7n6kQAAXwBg3SZ5Vv7FLzRlAEA3ABgbkOnNq9+0qBqHAQD8AoCtu8CD+ncdGWYUAMA3ABhb1sHl8kf3D7vaEAD4CADr/htXX/1WOuhXCAD8BIBFtEp0rf7HzncyAgDgKwCMbXjbnfIfcLgNKQDwGQBW/+EE9eVvdndTBgDMAICx73crLn/k2iGOTw4A/AeANR2frLL+i9YInBsAaAAAY29dpu7V7xmhjWYAgBYAsIYr45SUP3lgA7ETAwA9AGBsr4qkyLhs0dMCAF0AYD2WUONinTaKnxUAaAMAYxWkpEiHr2Q2nQYAGgHAGkyTjouFtreUOiUA0AkAxjZKJkV275U8IQDQCwDWq5FE+TNHSW80DAA0A4CxAX8UffU7Sug9BQC0A4D1Wy+y4XPo0C2UkwEA/QBgLH+F06hI6OAa2qkAgI4AMFb4Nyf7fhfPvYV6IgCgJwCMRdx8LMxQU55R0HcSAOgKAGN1wwy1noqTAAAAAAAAgJEAzAlz0PcAgN0A7Atz0D0AwG4AWoc56GcAwG4A+oY5aE8AYDUABeG23BoAAKwGYFm4g94LAKwG4LlwB20OAGwGYE247ExiLACwGICIsDeA2xkAsBiAJ8J+KVsLACwGYHD4yMQTAMBeAJo7iE7+GgBYC8ClDuqfFAsAbAXgv53kpbYzAGAnAOkLHYXlfgcArASgx/omjurfuBAA2AhArRSHadlDDADYB8A7uY7T8nUBgHUAzFjivOVOdFMAYBkAsaOiBZbLfMYAgF0AlJ4nUH6emA8ArAJgXWuxzTPqMABgEQDxIwT75OZFAQCLAJjaggtqPQMA1gCQXk+0/PyTQgBgCwAZ45sI179aFxgAGAfAieHi5eeDGACwA4CyXIny88XdAYAVABTUkeu1vZwBAAsAiG0XLVV+Po0BAAsAEDP+TtFTDQGA+QCs+0B219z2YTslAADtARA2/k6qzREGAEwHoKKFbPl52pMMABgOwF1/kC4/T9zMAIDZAGSMT5Ovf7NZDACYDUCt/5IvP/9kMAMARgOQTeqj+nIlAwAmA1BwlNQ6bXsOAwAGAxDRP5pS/rx2jocCAHQE4KrelPLzwxsYADAaAFK7rKR2Ip0SAYCOABAU90E3oaEAALsAWDRScCgAwCYAoj+OYAAgsAAI98kFAFYBMChbZigAwBIAhm+SGwoAsAKAxM4NGQAILAChSc2lhwIAzAdgzEOEoQAA0wFIOqs+AwCBBSBuWhRtKADAaACEjb8ztDzcd2UAoC8A0ZMjyEOZEuYcjwIAXQGQMv7O0CNhztIVAGgKwLhsJUMpCRctjQAAOgJw7hRFs3pLuDOdDwD0AyBvQUNVs9or3LlWAQDlAMQSjb9GzRVOa7gtR54CAKoB2Hseqf59H1I6rfvDne9eAKAUgKibaIk/mvF3ps4Jd8ZbAYBCALL+3oZS/riOUaqndXzYky4HAMoAWN2CdPe/ZqT6aT0e9qwXdQcAagCQ2OPvNONvnhvv5L3C/yLtLwAACgDIaNuEUn41xl8V2ubgk0M3AEAG4EQK6d9/oWuGzEAHZ79xMACgAVD2NC3x94178/qYkwE0fikVAMgDINLcw13jrwo1dfZe8v5gACAJgPQefz8bf/Nnujux05yNI6ZtPACQAaCUZvyNKXF7Yvs4jp9kAwBhAHQz/qpQxLmOf4seBwCCv6/aGX9VaZVACqElABDQVJrx13WkNzNb2Mz5mK5cDgCc6q77acZff8/COO+JjOvNAgDgRDl/SqOUv/HlDbyb2n8Uiwyt/bMAwMGBhpP+/Qd5+8C9R+zF9NoMABDG+MsllV92qa/8U8AfBd9NRwKAGlRAM/4SP/Pedp0sOEY/XCFTAIhdRjP+Gs304/56WHScvZ8HAFVqDc34u6SE+aK/FIuONK9VBAAw0firRkslnlRbAoDTRWju8S/jb1oU80+HxAecuRwAqDT+3vLTaWcNZEY/vxcAMM/4q0bZzSSG3b4CABhn/FWnEpnQoneukNYAdDmX9O8/KJvpoC5xMoN/f2TgATDN+KtWy6QISH4pPtAAyHb19dH4q1a15S6ld1lwATDT+KtW7+bJ5VY9cIX0BKCU1txjTB+mmS5sL/kY0z2IAER9YKrxV70qu8pdjOtZIf0AiB/RjFL+uB//zHRU05WSVLvsCmkHQAXR+LuQ6arNV8td0p0VAQKA0tWXu7XUV5V6fCl3E3DVFdIKgJy25ht/NWrWr+Su7MarAgEA0fgbl820V4PWctfmXlZIHwDKSF191e3x57KuuEju+txyhXQBgGr8dW7IDFHUBZKX6I4rpAcAlhl/YTSqWO4yBw2xFYDbzUz8Sav5xZKuUG1LASApqVV9ZprqFyXo4gqZDoBHS32V69LL5K63/WoAYIjxF0YNL9fDFTIaAP8Tf+a7QgYDkHy0ATNaWrhC5gJggvFngCtkKgCmGH8uuUJpPSMCDYBBxl84tZN1hboHFwDDjD+XXKGk2kEFoG8Js0r+ukLGAWCi8aezK2QYAKYaf665QjnBAsBc4y+c+vjlCpkEgNnGn6aukDkANC5vwKyWP66QMQDYYPzp6AoZAoAlxp9brtCt3e0GwCLjzy1XaKzOAMSugPHnviuUry0AnxK7+pawQMljV8h1AKJuC8H409gVchmArFW0pb52Gn9uuULTr9INgKnWLvXV1BVaH68TAOnXw/jz2hX6bZk2AOTQuvpab/xp4gq5BkAtWlffceezoMsbV8glAN6h7fHXaQqDvHGFXAEgOEt9NXWFGuX7CUDsqCAt9dXUFbrPPwBKYfzp4ArN7eEPAFGtaXv8Bc/489kVUgsAjD+dXKE98V4DAOPPPFdIIQBU429eBErtvSukDIAMmvGXEHDjL6wr1EFuXnO7ewQAsasvjD+/XCE1AMD4M9YVUgEAjD+DXSE6ALHtiMZfS5TWR1eIDACMP7NdISIA1K6+MP78doVIAFC7+sL489IVukU5ADD+zHKFRkQoBQDGnxWukCwAMP4scYUkAYDxZ4srJAVAGYw/Y12h6PvIAMD4s8kVEgYAxp9drpAoADD+rHCFmkoCAOPPOldIBAAYfxa6QgIAEI2/rTD+dHSFHAOQfj+MP8tcoXkCAGSMh/FnpyvkDAAYf9a6Qk4AoBp/G1EhfV2h5WEBIBt/qaiPByqRdIXywvz92Mc/wPgzQoVruRsiGT+875MojP6ukGuC8WeIK+SO4oZ1Q0lMcYVcEIw/o1wh1YLxZ5wrpFIJ5f1QCeNcIXWC8WemK6RIMP78l2xWSIFg/Gkh2awQVTD+gu0K9Z2FiQ+wKwTjL9CuEIy/YLtCMP4C7QpFj4XxF2BXKOH3MP60Var7rtBCGH9BdoVg/AXaFYLxF2hXCMZfsF2hiTD+guwKwfgLtCsE4y/YrhCMv0C7QjD+Au0KwfgLtisE4y/QrhCMv0C7QokLYPwF2BWC8RdsVwjGn0Wu0Fbh8me+DuPPIsUuE9v1J/l/8jFplnkCqzKd+75n/wUTZp8yrrvRUfnThm3AZNmp+nUnNQ672KNnL0yUxfrz0oOJ1b/39V0/GlNkvXJW73m6+Mzf/cuGzcNrf2AU0fz43y4/+46tL++/5KkHr39j5/IJaOsBQRAEQRAEQWH1fyxodzwuFhjIAAAAAElFTkSuQmCC;" vertex="1" parent="BqjSLN71TK_Zf-umYn8F-33">
          <mxGeometry x="9" y="55" width="68" height="68" as="geometry" />
        </mxCell>
        <UserObject label="&lt;font style=&quot;font-size: 16px;&quot;&gt;Node Red Sensor Simulator&lt;/font&gt;" placeholders="1" name="Variable" id="BqjSLN71TK_Zf-umYn8F-12">
          <mxCell style="text;html=1;strokeColor=none;fillColor=none;align=center;verticalAlign=middle;whiteSpace=wrap;overflow=hidden;" vertex="1" parent="BqjSLN71TK_Zf-umYn8F-33">
            <mxGeometry y="9" width="143" height="45" as="geometry" />
          </mxCell>
        </UserObject>
        <mxCell id="BqjSLN71TK_Zf-umYn8F-36" value="" style="shape=image;verticalLabelPosition=bottom;labelBackgroundColor=default;verticalAlign=top;aspect=fixed;imageAspect=0;image=data:image/png,iVBORw0KGgoAAAANSUhEUgAAAgAAAAIACAMAAADDpiTIAAAABGdBTUEAALGPC/xhBQAAAAFzUkdCAK7OHOkAAAL9UExURQAAAAAAAAAAAAAAAAAAAAAAAAAAAAAAAAAAAAAAAAAAAAAAAAAAAAAAAAAAAAAAAAAAAAAAAAAAAAAAAAAAAAAAAAAAAAAAAAAAAAAAAAAAAAAAAAAAAAAAAAAAAAAAAAAAAAAAAAAAAAAAAAAAAAAAAAAAAAAAAAAAAAAAAAAAAAAAAAAAAAAAAAAAAAAAAAAAAAAAAAAAAAAAAAAAAAAAAAAAAAAAAAAAAAAAAAAAAAAAAAAAAAAAAAAAAAAAAAAAAAAAAAAAAAAAAAAAAAAAAAAAAAAAAAAAAAAAAAAAAAAAAAAAAAAAAAAAAAAAAAAAAAAAAAAAAAAAAAAAAAAAAAAAAAAAAAAAAAAAAAAAAAAAAAAAAAAAAAAAAAAAAAAAAAAAAAAAAAAAAAAAAAAAAAAAAAAAAAAAAAAAAAAAAAAAAAAAAAAAAAAAAAAAAAAAAAAAAAAAAAAAAAAAAAAAAAAAAAAAAAAAAAAAAAAAAAAAAAAAAAAAAAAAAAAAAAAAAAAAAAAAAAAAAAAAAAAAAAAAAAAAAAAAAAAAAAAAAAAAAAAAAAAAAAAAAAAAAAAAAAAAAAAAAAAAAAAAAAAAAAAAAAAAAAAAAAAAAAAAAAAAAAAAAAAAAAAAAAAAAAAAAAAAAAAAAAAAAAAAAAAAAAAAAAAAAAAAAAAAAAAAAAAAAAAAAAAAAAAAAAAAAAAAAAAAAAAAAAAAAAAAAAAAAAAAAAAAAAAAAAAAAAAAAAAAAAAAAAAAAAAAAAAAAAAAAAAAAAAAAAAAAAAAAAAAAAAAAAAAAAAAAAAAAAAAAAAAAAAAAAAAAAAAAAAAAAAAAAAAAAAAAAAAAAAAAAAAAAAAAAAAAAAAAAAAAAAAAAAAAAAAAAAAAAAAAAAAAAAAAAAAAAAAAAAAAAAAAAAAAAAAAAAAAAAAAAAAAAAAAAAAAAAAAAAAAAAAAAAAAAAAAAAAAAAAAAAAAAAAAAAAAAAAAAAAAAAAAAAAAAAAAAAAAAAAAAAAAAAAAOafOxsAAAD+dFJOUwBupP5VWqqRTbEB/Rfn+wL8AwT49Q7u+uIHCKn59/YiCQXx7CHXBijdHAq9ym30ExAPoHjz8IFBZOXymic33LQpfjRUxxUe6wuMbxLDy0U/0tENMdOLX1aPuTMaDB2Y33A1ZS7WXLiAUS/Q7d6rXlJGnTbbER9A6XWXXah9t8jg78WSZmFZiIlySDmVoWcZgyROLa1Th0faGJ/GPdWmo3vCzyu6ooTNuzqG49QgdiM82UmssLLArkK8d0rBtUNqaTCOPrNLV8m/Y0S+JnPMO3/OtqWebJSnMsQsUI3YnEzkYljmOHxba5N5ipBPha+bKuqZ6IIUJRtxdBbhYJZ6yd5C0QAAHc9JREFUeNrtnXd8F0X+xke/IJBOElIoSSCQSCIpJBCKwSBFAhIQlR56ETya9CrSQaSciIhUFQWxoCieYgEB+9l7P/upZ7l+vzKv3/1O7wBJ8t2Zz+zuzOzz/JvXa3d2Pu/sd/fZZ+bDGARBEARBEARBEARBEHSq/lHyxZd/WDT8ouKYhDbR236z40+/G52FWQmIWrb7bkyIn6GEa1ZUAALrdc+C8yJ5tco7eKIh5shepfbPraH6P2nxsAmYKDtVWPQJd6JQ7iMRmC3rlFPUhjvWeQ9hwuxS/Sc+4kIaVIZJs0hPXsJF1fiGHMybJRqyI8QllPIhps4GZT1czCVVrzumz3h92ILLq/jupphBo5V+Aadp/4uYRHM1dH0TTlXka70wkYZqQApXocxR8IVM1OjnuCrt+jWm0zQV1Inh6pRc3gNTapJiR0VztUq5ArNqjkrP4+pVrzkm1gxF3RTJ3VBiEUwBAxQ/og13S2PuxfzqrooW3EWFWkdhinVW5STusmAKaKyM8WncfW0djZnWU++eyz1RzMB+mGz9lH0H90wpXTDfmqnf7xtzL/UKTAGdFDE5mnusxJ0wBbTR4Gu4D2pRgpnXQvkdI7kvCu2AKaCB8dfqSu6bkq6DKeCzJPLeStV1MGrgo1qeHeI+C6aAf0rdmUeq3ZWvtXtrSE7BXav/dxflKSJlCkrhi+p2IpV/4pRT3uP+ekMzwqEe3YBqeK70V0jl7/TNLx7f8n8k3AUSF6SiIp5q6D5S3juxcxUFK91NMQWwnNhL0fLeoUYtq36j7En4HQhthynglSZcTLr7963ewWt5DuG4i1vFojYeaMYSUt47qVX9mo6+mvJJ+akLUR63Fbt0NqX8cdPC3agz2iYQDr+kAUrkqj6l5b0XjXRwjuxcwhmil6NI7inqNpLxF/2MQ+f+c8rH5UHno1DuKGsVxazhyQOd354L3iCYAmkvwRRwQ1Npee9bxdZ3XtWb4jI9i3Kp1l33exziq08yBeavQ8lUipj3Tmsrs+HXlkYhiilQH2VTpi60vHe9dNlfnemEs94OU0CRsn9DW8+3Wv7UDccTPjnEXQtTQIEKy5Mp5e8whxbe3UChL3os6kcUMe8duXYIeQgn2lPePWAKkDRyK+nuv3uvkntQnTj5ISTsQf8BaRHz3pmjVH2dG0kyBVajklKK77mY9NlnrsLt/WKfIGw6UV38AKpRfWh578OK13BHvUowBTqMgCkgqMr5pM8+H7nw+F3xPiWBOhI1FVBqESnvnXCDK5v6ZS2gmALDZqCuTlWXZvwtdO3VK30hYViz56GyjnTPo7S893E3BzfgTsLQnoMpEF5DV5A2eije6fK3+ELKDrQJ+zJQ4ZqNv9+5kvdWqgmUVNq5j6DINc0tMe89y5NRxl6XRBjkJJgC1Rp/b7iZ91ZqClCyiR1egClQ9f9VJsn46+jpwpxZlHzaxDUo9xm6tzfp7t/V6/RF1k5CRimyI0yB07WFmPfu78NOLemU19XMySj6Kf9NczzLeyvVJsory4PoQvNvbablvQfd4p9pUU54bEVr2p/vpNfT8t6bfB39aMoOhVcfR/kz2tI2enjJ77xN7HWUXeoOBr01ba3htLy3Dhv25rcmPMAW3x0f4PKX5ZLKP+YxTa6jzzbCVVyyN6jlLzhKyns3m6PPZs1ZRYkEUyCYrWkj+hPz3nrtyDOT0qM68+PgbTh7FW2jh976manfUEyBwwEzBbp9p0neW6kpsJLwk5a8MkCmQHxPUmO/mGt1NdJHv00xNN4NSv1n0fLeD2rcsytiWabpL7Wuq/Ic0meflNp6X17+NJIpYH0XmoY7dcx7K9XNlBuc7a1piXnvY0akauPnECAPte5mb/mfJ+a9jclTVj5AesWx1BQYupKU9+7wlUl7r22k3Oq22mgKRIylrKjgofmGZWl7rKCYAu/1sK3+E94m3f0nzjLvkr+nRNwta02bPzeOUv4kM3dci+j/A+GiH7DHFKDmvYcZ+1xM2uEk8StLTIGbbyfd/bcavdveGoop0GKWBeXfsoOW955n+DtR/KpiiilgehearIeLKeVPPmrBTostJ1Eef8xuTUvNe2fD/+Rdjxh73ekHSeUfvonZoox9BA/M1Na0OcS8d2er9lfMfo4wF+1NNAVq0TZ6OGTbp3HalrcLTZuOdyzJe6tUwTBKF5rOJn0JKahD2uhh8QuWxiJKX6aYAiXGGH/LaHnv1vZ2YKW1pt1hxsSU0vLeT9m9ecYQUmvax/VvTbvlA1Le+4/trO++u/pXhPlZdET3Wxwt770kCBunkFrTxryn8/KBZ2l579zRLBjKfpqyp4C2b0iVk2h57xMsOKK0po0sz9LyxvZSGinv/W2wtkuZcS3hWWlRpX4XtJGW937gLyxoorSm/aRUtx+1W2l5780sgKK0pk3T6utAP2Le++4sFkwRWtPGfazNVUT0p7TV46EdQd47eWon6UfBJzS5hAnXkO7+E19kgZZ8a9pILbYa7UZs7PcF9s2Wbk0bU9f3sdO2yONxw/IZxNgAyd/QxCM+D/xJmvG3C93Vf5Zsa9rhvi6YGPImLe/9OQp/UiPlPqHm+vfpjJj3Tijvh6qf9msq15r2Yb/G+yEt7/0K2qedoSiZO2rjt3wZa/oxUvnPnYJyVyWZ1rQTfdhpeOh65L1d+l2VaE37guejXE5s7Nccha7h3ir8UaX4r96OcPRzpLv/mIdQ5DCmgOhGKh94OTpq3ntEU1Q4vCkgNscx3j1Qxy69iJT3vqkbyutEg8VMge1ejYua9x6J0jr9TxNqTRtzlzevqTfRPvu0i0BhBWZbpI3i1x4MKH4ErbHf14UoqtDD1hKBrwPN3N9TrmI/6e7/NFokCj5szRaa33kuj6dyEqn8lm15577uFX3YynV1OBnjSXnvJt9moKQiGvKq8DeByHUujuddYt47HSUVUWqRzFfWUa6NJ/sOUvkP3IeSCqnujXL/Zi4Np997pMZ+Hf4O40/s322Q5EznuTLRtF1teOjVliipiAovl19e4cZKocHIe3spWh9N9R+F84mN/ZbGoqYiKu1N+ndrpNr4e5yY9+6FkoqI6LNzvl/teKh570tRUhFlrWrGiWqs8imwZSNa3rs2Siqk1Tdyup5Xh2MRrbHfSuS9hZR+AVchZZsI1qXhuBB5byENXdFYSf25otvu8zQcp29ESYVe/ealcEVapQTHfch7eymi03KaFigYzwBi3nsmSirktHSMVFd//i15PEd2kQZwSQlKKqKmf2vDVeoocTwzlpDy3klnYaMHIVVcxtWqDmk4ohGkX+YRLN7f251Xv/s51wmAT2l570XIewuJ2EtHOQBCCeQzNRt5by+ftZUDQM17D0TeW0gTdnGuEwBTaRs93IG8t9ir3xsxXCcA7qI9jCDvLXi3fTyTc40AIOa909bnoKYi6nMJ5zoB0IWW966HvLeQKueHuE4AZNMa+7WoQEmF7ra0bgr8lTpqASgsp+W970be28u7bafj7CyVAEQ8Q2vstxZ5byH9mna3bTYniykFIPti0nh270VJRUTcVidy7ZD/P4o6AGKLSBmUzFHIe4uIuK0O7/3zkg9lAESRFvvFzUXeW0g30+L+J312VQC8SPrsd3g0SiqiIdtJr37JAxv851CKAJhM+Q4VPRYlFZHcSu+TGpd9ysHUALCTAGTCDT1QUxHVJb76nd4PRAkAlyPv7ZmyXyGVv3hnKlMOQB0CjsdRUiGj7SjJaAu9OuSXR1QAQFv5vPeCVNRUxGgjrfTmfHcVK+vpALSSxnE7jD8hraEl7GZfV1XAlgxAhawd1Rd5byFtoa30Tl4yo8rDUgHYIBlFuPJ15L1FlDWHttK72ogVEYCsl+WMv2nIewtpMy1hl7Kp2iMTASiXGk9X5L2FRFzpXePaShoAJTI/S9HPIO8tIuJK7zBrK0kApB6g+dCQg1e/sXeS/v0nzqr5+CQAxouP59ZbUFMREVd6J7UK96xNAWCm8BegX72Lkoooahrp1S/my/Af2SkATBPNe7dF3ltE8T1pK70fdPKRnQDA84IWUD009hMScaV3ygBHZyEA8KrQeLY9i5KK6B7a4qpEp3dbeQAqRb5LNZuDvLeIiCu9Q4cc323lAVghHECFnIq40lukjao0AKnOPwIcKEVJRXQpLV4v9plFGoApAm8je3D/d678N+Io5Y/rKPaZRRqAgyKjenkCCuvw1Y+40nvXhYInlAWggZg/nfAwvv46UR/aq99Hy4XPKAvAJuEvgGUobzhVTiLF/aXy1bIAvCY8vLyz8BGwRhH31eBcamMFWQBk3lNy70GVq1eXqzlRzEMAKqVG2GwU6lyNynI5NwmAE7LLQBAErkrEld4+ALBSdpCZWAd4hqgrvf0A4AH5YV7/Z5T8NN18O+fGATCdskDhChT9pIbsULbJl4cAxJJ+skJrC1D4n5T6VR7nBgKwhTjU9mj+/S8RV3r7B8AR6lhDw4ai/MSV3n4C8Bh9tJ1uDnj5Cwcmc2MB+FDBcCMHZgS4/NSV3j4D0EXJgN+/KrD1Lz2Pc5MBqK1mxDF7sgJZ/i23ubK/s3kABDMpQl3pbRUAvPGC+IDVn7jS2zYAgpYUUdTT2yYAeNoLgUmKKOvpbRUAnD8YjKQIdaW3vQAEIykyuCtpjpK+sBgAzsd1t7z83Wg9veOGdWNWA8CvnGdz+akrvQ+/9c+D2A0A53+wd+cw6krv2v86iu0A8NlTLH31u540LU32/Rz3tx4AzrdbmBSh9vQ+2UfRIADGye5ucKd1SZEBH5HKP+axk4cyCICz2QnJNY6hjv1sKv8E2krvxSNOXVdtFABsnaznebU9m0jnz6Wt9P7FhrpmAcDYsg6SSZGvM+x49Xv8StpHkl+u9DYNANZddrnTjTYkRYg9vaPHnvGFxDgAWESrRMmkyA2mJ0XcWOltHgCMbXhbcgb6Gp0UyVhAi/sfq7KTlokAsPoPJ0gmRTqbmxQh9vQ+UM27sJEAMPb9bsl56F1mZvnLqD29q9tSy1AAWNPxkgH4tDkG9pOm9vRuXf0XEVMBYGzwtqAkRWKXknoo80Vraji4uQCwhislHZHix42qP3Gld5heKgYD8M+pkV1QblBShLjSO6E8TC8VowFgPZZIJmLaTDaj/NSe3uGbKJsNAGMVsttgHVxnQP3V9vS2EgDWYJrkLfKHTbqXP3shqfwdipw0UTYeAMY2tpecofn5Ope/sJzW2O02Z3unWQAA69VIcpLaP6Lvq98yYk/vvQ5PZAMAjA2Q3BIt9JqmSRHiSu/MUY7dLjsAYFHHZJMiD2lY/i2taT29vy50fi5LAGCs/2JJm3RJhmblp670HiTURtMaAFj3O2STInu1qj9xpfdwwZcbewBgEU9Ifi+PuSFVm/K72dPbdgAY2yAbl902WI/yk3t6i2+bbRUALHaV5HoJLZIiEZPbk/79J94rcVK7AGDs+96Ss/db3zuQE3t6Z34h1UHJNgBY/ALJpEiTu31NihBXesdc20vuvNYBwNilEyUn8W3/kiLUld5Pj5Y9s4UAsNQVkkmRvFY+bSxUsZ9U/pQu8qe2EQDG1hyQNVH8SIoQV3o77ukdIABYTh3ZpMjHnr/6raf19J7UnHR6SwFgrEQ2KVLP26QIsad3X+qqV2sBYA06SiZFMmt5V37iSu+kVuTmufYCwNiHuidFqCu9h3Wjj8FmAFivNyWnNtqLpEj867SV3gcuVTEKqwFgrJZsUqR1odv1J6705vwcBgAcGGyHZJMij7lafuJKbwDgXJMlkyKha3NcK39GZwWN3QCAQ627VXKGp7/oUv27KGnsBgAcf2a9TnJ5Tdzv3UiKvJPLOQDwEgDGmu/SJikyQ0lPbwAgqNgRaXKznNxWaVKEutIbAEirTDZpf/todfVX1tMbAEj4Ljsl83bKkiIKe3oDABlJJ0WueV7BTKcW5XEOAPwEgGXtk3wAU5AUUdvTGwBI6tMxkrOdS0uKZN/BOQDQAADWcKBsUqSd/EmJK70BgEIAGOsju7HQA5JJEepKbwCgFgDW70fZpMhymdO50tMbAJC0WbbXYiPhpAhxpTcAcAUANuM2yUmfXVfoPK719AYAVF3xgwdJkeMtOAcAegLAomTD+Fc/6/AM6Y+S6ps4CAC4CQBjnydJ3gTmDnXyqLmSuNJ7Zi0A4C4AbJ3sv+j0sOuwySu9ZzEGANwGgLGlki2o4sprTooQV3r/FPcHAO4DwLoflk2KXFj9Qak9vef+tNIbAHgAAIvtKduCan01PTioK70f/Hf+AAB4AQBjGxbJJkWqbEE1lbjSe8B/jgQAvAGA1S+SbEGVUHTGyjziSu+0U1d6AwCPAGDsiGwLqmtO9wT++mUCpfyhQzNPPRoA8AwAlvWtbFT3t6v+va9MQZdJpPKfsdIbAHgHAGOl26QLd9HTb3639oIDxI8+Sa//8vcEAHgJAGtY7tpnOyevflWs9AYAngLA2JPTfav/rqpcBQDgMQCsx9yQL+X/aGyVwwEAXgPwz5f4q70vf8K+HgwAaAIAm7HW6/rXS69uLADABwAY+6a9l+Ufs7n6kQAAXwBg3SZ5Vv7FLzRlAEA3ABgbkOnNq9+0qBqHAQD8AoCtu8CD+ncdGWYUAMA3ABhb1sHl8kf3D7vaEAD4CADr/htXX/1WOuhXCAD8BIBFtEp0rf7HzncyAgDgKwCMbXjbnfIfcLgNKQDwGQBW/+EE9eVvdndTBgDMAICx73crLn/k2iGOTw4A/AeANR2frLL+i9YInBsAaAAAY29dpu7V7xmhjWYAgBYAsIYr45SUP3lgA7ETAwA9AGBsr4qkyLhs0dMCAF0AYD2WUONinTaKnxUAaAMAYxWkpEiHr2Q2nQYAGgHAGkyTjouFtreUOiUA0AkAxjZKJkV275U8IQDQCwDWq5FE+TNHSW80DAA0A4CxAX8UffU7Sug9BQC0A4D1Wy+y4XPo0C2UkwEA/QBgLH+F06hI6OAa2qkAgI4AMFb4Nyf7fhfPvYV6IgCgJwCMRdx8LMxQU55R0HcSAOgKAGN1wwy1noqTAAAAAAAAgJEAzAlz0PcAgN0A7Atz0D0AwG4AWoc56GcAwG4A+oY5aE8AYDUABeG23BoAAKwGYFm4g94LAKwG4LlwB20OAGwGYE247ExiLACwGICIsDeA2xkAsBiAJ8J+KVsLACwGYHD4yMQTAMBeAJo7iE7+GgBYC8ClDuqfFAsAbAXgv53kpbYzAGAnAOkLHYXlfgcArASgx/omjurfuBAA2AhArRSHadlDDADYB8A7uY7T8nUBgHUAzFjivOVOdFMAYBkAsaOiBZbLfMYAgF0AlJ4nUH6emA8ArAJgXWuxzTPqMABgEQDxIwT75OZFAQCLAJjaggtqPQMA1gCQXk+0/PyTQgBgCwAZ45sI179aFxgAGAfAieHi5eeDGACwA4CyXIny88XdAYAVABTUkeu1vZwBAAsAiG0XLVV+Po0BAAsAEDP+TtFTDQGA+QCs+0B219z2YTslAADtARA2/k6qzREGAEwHoKKFbPl52pMMABgOwF1/kC4/T9zMAIDZAGSMT5Ovf7NZDACYDUCt/5IvP/9kMAMARgOQTeqj+nIlAwAmA1BwlNQ6bXsOAwAGAxDRP5pS/rx2jocCAHQE4KrelPLzwxsYADAaAFK7rKR2Ip0SAYCOABAU90E3oaEAALsAWDRScCgAwCYAoj+OYAAgsAAI98kFAFYBMChbZigAwBIAhm+SGwoAsAKAxM4NGQAILAChSc2lhwIAzAdgzEOEoQAA0wFIOqs+AwCBBSBuWhRtKADAaACEjb8ztDzcd2UAoC8A0ZMjyEOZEuYcjwIAXQGQMv7O0CNhztIVAGgKwLhsJUMpCRctjQAAOgJw7hRFs3pLuDOdDwD0AyBvQUNVs9or3LlWAQDlAMQSjb9GzRVOa7gtR54CAKoB2Hseqf59H1I6rfvDne9eAKAUgKibaIk/mvF3ps4Jd8ZbAYBCALL+3oZS/riOUaqndXzYky4HAMoAWN2CdPe/ZqT6aT0e9qwXdQcAagCQ2OPvNONvnhvv5L3C/yLtLwAACgDIaNuEUn41xl8V2ubgk0M3AEAG4EQK6d9/oWuGzEAHZ79xMACgAVD2NC3x94178/qYkwE0fikVAMgDINLcw13jrwo1dfZe8v5gACAJgPQefz8bf/Nnujux05yNI6ZtPACQAaCUZvyNKXF7Yvs4jp9kAwBhAHQz/qpQxLmOf4seBwCCv6/aGX9VaZVACqElABDQVJrx13WkNzNb2Mz5mK5cDgCc6q77acZff8/COO+JjOvNAgDgRDl/SqOUv/HlDbyb2n8Uiwyt/bMAwMGBhpP+/Qd5+8C9R+zF9NoMABDG+MsllV92qa/8U8AfBd9NRwKAGlRAM/4SP/Pedp0sOEY/XCFTAIhdRjP+Gs304/56WHScvZ8HAFVqDc34u6SE+aK/FIuONK9VBAAw0firRkslnlRbAoDTRWju8S/jb1oU80+HxAecuRwAqDT+3vLTaWcNZEY/vxcAMM/4q0bZzSSG3b4CABhn/FWnEpnQoneukNYAdDmX9O8/KJvpoC5xMoN/f2TgATDN+KtWy6QISH4pPtAAyHb19dH4q1a15S6ld1lwATDT+KtW7+bJ5VY9cIX0BKCU1txjTB+mmS5sL/kY0z2IAER9YKrxV70qu8pdjOtZIf0AiB/RjFL+uB//zHRU05WSVLvsCmkHQAXR+LuQ6arNV8td0p0VAQKA0tWXu7XUV5V6fCl3E3DVFdIKgJy25ht/NWrWr+Su7MarAgEA0fgbl820V4PWctfmXlZIHwDKSF191e3x57KuuEju+txyhXQBgGr8dW7IDFHUBZKX6I4rpAcAlhl/YTSqWO4yBw2xFYDbzUz8Sav5xZKuUG1LASApqVV9ZprqFyXo4gqZDoBHS32V69LL5K63/WoAYIjxF0YNL9fDFTIaAP8Tf+a7QgYDkHy0ATNaWrhC5gJggvFngCtkKgCmGH8uuUJpPSMCDYBBxl84tZN1hboHFwDDjD+XXKGk2kEFoG8Js0r+ukLGAWCi8aezK2QYAKYaf665QjnBAsBc4y+c+vjlCpkEgNnGn6aukDkANC5vwKyWP66QMQDYYPzp6AoZAoAlxp9brtCt3e0GwCLjzy1XaKzOAMSugPHnviuUry0AnxK7+pawQMljV8h1AKJuC8H409gVchmArFW0pb52Gn9uuULTr9INgKnWLvXV1BVaH68TAOnXw/jz2hX6bZk2AOTQuvpab/xp4gq5BkAtWlffceezoMsbV8glAN6h7fHXaQqDvHGFXAEgOEt9NXWFGuX7CUDsqCAt9dXUFbrPPwBKYfzp4ArN7eEPAFGtaXv8Bc/489kVUgsAjD+dXKE98V4DAOPPPFdIIQBU429eBErtvSukDIAMmvGXEHDjL6wr1EFuXnO7ewQAsasvjD+/XCE1AMD4M9YVUgEAjD+DXSE6ALHtiMZfS5TWR1eIDACMP7NdISIA1K6+MP78doVIAFC7+sL489IVukU5ADD+zHKFRkQoBQDGnxWukCwAMP4scYUkAYDxZ4srJAVAGYw/Y12h6PvIAMD4s8kVEgYAxp9drpAoADD+rHCFmkoCAOPPOldIBAAYfxa6QgIAEI2/rTD+dHSFHAOQfj+MP8tcoXkCAGSMh/FnpyvkDAAYf9a6Qk4AoBp/G1EhfV2h5WEBIBt/qaiPByqRdIXywvz92Mc/wPgzQoVruRsiGT+875MojP6ukGuC8WeIK+SO4oZ1Q0lMcYVcEIw/o1wh1YLxZ5wrpFIJ5f1QCeNcIXWC8WemK6RIMP78l2xWSIFg/Gkh2awQVTD+gu0K9Z2FiQ+wKwTjL9CuEIy/YLtCMP4C7QpFj4XxF2BXKOH3MP60Var7rtBCGH9BdoVg/AXaFYLxF2hXCMZfsF2hiTD+guwKwfgLtCsE4y/YrhCMv0C7QjD+Au0KwfgLtisE4y/QrhCMv0C7QokLYPwF2BWC8RdsVwjGn0Wu0Fbh8me+DuPPIsUuE9v1J/l/8jFplnkCqzKd+75n/wUTZp8yrrvRUfnThm3AZNmp+nUnNQ672KNnL0yUxfrz0oOJ1b/39V0/GlNkvXJW73m6+Mzf/cuGzcNrf2AU0fz43y4/+46tL++/5KkHr39j5/IJaOsBQRAEQRAEQWH1fyxodzwuFhjIAAAAAElFTkSuQmCC;" vertex="1" parent="1">
          <mxGeometry x="112" y="650" width="68" height="68" as="geometry" />
        </mxCell>
        <mxCell id="BqjSLN71TK_Zf-umYn8F-38" value="&lt;div&gt;&lt;span style=&quot;white-space: pre;&quot;&gt;&#x9;&lt;/span&gt;ejemplo: modelos&lt;span style=&quot;white-space: pre;&quot;&gt;&#x9;&lt;/span&gt;&lt;/div&gt;&lt;ul&gt;&lt;li&gt;ai/llama3.2:3B-Q4_0&lt;/li&gt;&lt;li&gt;ai/gemma3:latest&lt;/li&gt;&lt;/ul&gt;" style="text;strokeColor=none;fillColor=none;html=1;whiteSpace=wrap;verticalAlign=middle;overflow=hidden;align=left;" vertex="1" parent="1">
          <mxGeometry x="169" y="642" width="208" height="80" as="geometry" />
        </mxCell>
        <mxCell id="BqjSLN71TK_Zf-umYn8F-40" value="docker/model-runner" style="text;whiteSpace=wrap;fontSize=17;" vertex="1" parent="1">
          <mxGeometry x="74.5" y="619" width="208" height="36" as="geometry" />
        </mxCell>
      </root>
    </mxGraphModel>
  </diagram>
</mxfile>
